<?xml version="1.0" standalone="no"?>
<!DOCTYPE svg PUBLIC "-//W3C//DTD SVG 1.1//EN" "http://www.w3.org/Graphics/SVG/1.1/DTD/svg11.dtd" >
<svg>
<metadata>
Created by FontForge 20090914 at Wed Dec  3 23:26:56 2014
 By www-data
Mathematica typeface design by Andre Kuzniarek, with Stephen Wolfram, Gregg Snyder, Carl Rohrs, and Andrew Hunt. Copyright (c) 1996-2013 Wolfram Research, Inc. [http://www.wolfram.com]. All rights reserved.
</metadata>
<defs>
<font id="Mathematica" horiz-adv-x="1319" >
  <font-face 
    font-family="Mathematica"
    font-weight="400"
    font-stretch="normal"
    units-per-em="2048"
    panose-1="5 5 5 2 6 1 0 0 0 1"
    ascent="1638"
    descent="-410"
    x-height="933.999"
    cap-height="1356"
    bbox="-352.001 -3471 5118 4989"
    underline-thickness="0"
    underline-position="0"
    unicode-range="U+0020-U+1D7E1"
  />
<missing-glyph horiz-adv-x="1024" 
d="M128 0v1638h768v-1638h-768zM256 128h512v1382h-512v-1382z" />
    <glyph glyph-name=".notdef" horiz-adv-x="1024" 
d="M128 0v1638h768v-1638h-768zM256 128h512v1382h-512v-1382z" />
    <glyph glyph-name="space" unicode=" " horiz-adv-x="499" 
 />
    <glyph glyph-name="RawExclamation" unicode="!" horiz-adv-x="682" 
d="M471 1221c0 -36 -5.50098 -97.333 -16.501 -184s-24.5 -185.334 -40.5 -296.001c-11.333 -77.333 -24.166 -160.166 -38.499 -248.499l-21.5 -132.5h-26l-17.5 118l-40.5 263c-13.333 83.333 -26.166 177.333 -38.499 282s-18.5 170.667 -18.5 198
c0 51.333 10.167 91.333 30.5 120s53.166 43 98.499 43c48 0 81.5 -14.333 100.5 -43s28.5 -68.667 28.5 -120zM458.999 84c0 -32.667 -12.333 -59.667 -37 -81s-52 -32 -82 -32c-28.667 0 -55.334 11.333 -80.001 34s-37 49 -37 79c0 34 11.333 63 34 87s51 36 85 36
c32.667 0 60.334 -12 83.001 -36s34 -53 34 -87z" />
    <glyph glyph-name="RawNumberSign" unicode="#" horiz-adv-x="1454" 
d="M1405 246h-246v-246h-112v246h-639v-246h-113v246h-246v112h246v639h-246v113h246v246h113v-246h639v246h112v-246h246v-113h-246v-639h246v-112zM1047 358v639h-639v-639h639z" />
    <glyph glyph-name="RawPercent" unicode="%" horiz-adv-x="1638" 
d="M762 1104c0 -117.333 -37 -231 -111 -341s-165.333 -165 -274 -165c-88.667 0 -152.5 23.167 -191.5 69.5s-58.5 112.5 -58.5 198.5c0 106.667 43 209.5 129 308.5s184.333 148.5 295 148.5c61.333 0 111.833 -19.5 151.5 -58.5s59.5 -92.5 59.5 -160.5zM1262 1358
l-758 -1358h-109l756 1358h111zM1512 492c0 -117.333 -37 -231 -111 -341s-165.333 -165 -274 -165c-88.667 0 -152.5 23.167 -191.5 69.5s-58.5 112.5 -58.5 198.5c0 106.667 43 209.5 129 308.5s184.333 148.5 295 148.5c61.333 0 111.833 -19.5 151.5 -58.5
s59.5 -92.5 59.5 -160.5zM711 1100c0 38 -11.666 74.832 -34.999 110.499s-57 53.5 -101 53.5c-86.667 0 -158.5 -52.667 -215.5 -158s-85.5 -201.666 -85.5 -288.999c0 -40.667 9.66699 -77.5 29 -110.5s50.666 -49.5 93.999 -49.5c78.667 0 150.667 48.5 216 145.5
s98 196.167 98 297.5zM1461 487.999c0 38 -11.666 74.832 -34.999 110.499s-57 53.5 -101 53.5c-86.667 0 -158.5 -52.667 -215.5 -158s-85.5 -201.666 -85.5 -288.999c0 -40.667 9.66699 -77.5 29 -110.5s50.666 -49.5 93.999 -49.5c78.667 0 150.667 48.5 216 145.5
s98 196.167 98 297.5z" />
    <glyph glyph-name="RawLeftParenthesis" unicode="(" horiz-adv-x="657" 
d="M596 -311l-25 -36.999c-180 114 -306 246.333 -378 397c-60.667 128 -91 293.333 -91 496c0 169.333 34 319.333 102 450c50 97.333 118.333 183.333 205 258l160 119l23 -35c-217.333 -164.667 -326 -429.334 -326 -794.001c0 -236.667 30 -425 90 -565
c51.333 -120.667 131.333 -217 240 -289z" />
    <glyph glyph-name="RawRightParenthesis" unicode=")" horiz-adv-x="657" 
d="M555 545c0 -202.667 -30.333 -368.001 -91 -496.001c-71.333 -150.667 -197.333 -283 -378 -397l-25 37c108.667 72 189 168.333 241 289c59.333 140 89 328.333 89 565c0 364.667 -108.333 629.334 -325 794.001l22 35l160 -119c87.333 -74.667 156 -160.667 206 -258
c67.333 -130.667 101 -280.667 101 -450z" />
    <glyph glyph-name="RawStar" unicode="&#x22c6;" horiz-adv-x="965" 
d="M838 616c0 -12 -3.16895 -23.1689 -9.50195 -33.502s-15.5 -18.166 -27.5 -23.499s-49.167 -16 -111.5 -32s-120.833 -38.667 -175.5 -68c48.667 -29.333 104.334 -53 167.001 -71s101.334 -30.667 116.001 -38c13.333 -6.66699 23.166 -14.834 29.499 -24.501
s9.5 -20.5 9.5 -32.5c0 -16.667 -7.16699 -32.834 -21.5 -48.501s-30.5 -23.5 -48.5 -23.5c-4 0 -9.5 0.666992 -16.5 2s-13.833 4 -20.5 8l-77.5 78.5c-51.667 52.333 -102.167 92.5 -151.5 120.5c0 -61.333 7.83301 -125.333 23.5 -192s23.5 -102.334 23.5 -107.001
c0 -24.667 -5.5 -42.5 -16.5 -53.5s-27.5 -16.5 -49.5 -16.5c-23.333 0 -41 5.83301 -53 17.5s-18 29.167 -18 52.5l28.5 106c19 70.667 28.5 135 28.5 193c-33.333 -17.333 -79.5 -52.666 -138.5 -105.999s-91.5 -81.333 -97.5 -84s-12.167 -5.16699 -18.5 -7.5
s-12.833 -3.5 -19.5 -3.5c-19.333 0 -35.166 5.5 -47.499 16.5s-18.5 28.833 -18.5 53.5c0 13.333 3 24.5 9 33.5s15.333 17.5 28 25.5c7.33301 4.66699 43.166 15.167 107.499 31.5s124.166 39.5 179.499 69.5c-45.333 24.667 -102 48.167 -170 70.5
s-105.667 34.833 -113 37.5c-14 7.33301 -24 16 -30 26s-9 20.667 -9 32c0 17.333 6.83301 33.5 20.5 48.5s30.167 22.5 49.5 22.5c10.667 0 21.334 -2.66699 32.001 -8s20.334 -12.666 29.001 -21.999c48.667 -53.333 86.334 -91.666 113.001 -114.999s58 -45.333 94 -66
c0 59.333 -8.16699 121.666 -24.5 186.999s-24.5 102.666 -24.5 111.999c0 24.667 5.5 42.5 16.5 53.5s27.167 16.5 48.5 16.5c23.333 0 41.166 -5.83301 53.499 -17.5s18.5 -29.167 18.5 -52.5l-28.5 -105c-19 -70 -28.5 -134.667 -28.5 -194
c12 7.33301 28.333 18.833 49 34.5s50 41.834 88 78.501c21.333 20.667 43.666 39.834 66.999 57.501s40 27.834 50 30.501c2.66699 0.666992 6 1.16699 10 1.5s7.33301 0.5 10 0.5c18.667 0 34.334 -8 47.001 -24s19 -32 19 -48z" />
    <glyph glyph-name="RawStar" unicode="*" horiz-adv-x="965" 
d="M838 616c0 -12 -3.16895 -23.1689 -9.50195 -33.502s-15.5 -18.166 -27.5 -23.499s-49.167 -16 -111.5 -32s-120.833 -38.667 -175.5 -68c48.667 -29.333 104.334 -53 167.001 -71s101.334 -30.667 116.001 -38c13.333 -6.66699 23.166 -14.834 29.499 -24.501
s9.5 -20.5 9.5 -32.5c0 -16.667 -7.16699 -32.834 -21.5 -48.501s-30.5 -23.5 -48.5 -23.5c-4 0 -9.5 0.666992 -16.5 2s-13.833 4 -20.5 8l-77.5 78.5c-51.667 52.333 -102.167 92.5 -151.5 120.5c0 -61.333 7.83301 -125.333 23.5 -192s23.5 -102.334 23.5 -107.001
c0 -24.667 -5.5 -42.5 -16.5 -53.5s-27.5 -16.5 -49.5 -16.5c-23.333 0 -41 5.83301 -53 17.5s-18 29.167 -18 52.5l28.5 106c19 70.667 28.5 135 28.5 193c-33.333 -17.333 -79.5 -52.666 -138.5 -105.999s-91.5 -81.333 -97.5 -84s-12.167 -5.16699 -18.5 -7.5
s-12.833 -3.5 -19.5 -3.5c-19.333 0 -35.166 5.5 -47.499 16.5s-18.5 28.833 -18.5 53.5c0 13.333 3 24.5 9 33.5s15.333 17.5 28 25.5c7.33301 4.66699 43.166 15.167 107.499 31.5s124.166 39.5 179.499 69.5c-45.333 24.667 -102 48.167 -170 70.5
s-105.667 34.833 -113 37.5c-14 7.33301 -24 16 -30 26s-9 20.667 -9 32c0 17.333 6.83301 33.5 20.5 48.5s30.167 22.5 49.5 22.5c10.667 0 21.334 -2.66699 32.001 -8s20.334 -12.666 29.001 -21.999c48.667 -53.333 86.334 -91.666 113.001 -114.999s58 -45.333 94 -66
c0 59.333 -8.16699 121.666 -24.5 186.999s-24.5 102.666 -24.5 111.999c0 24.667 5.5 42.5 16.5 53.5s27.167 16.5 48.5 16.5c23.333 0 41.166 -5.83301 53.499 -17.5s18.5 -29.167 18.5 -52.5l-28.5 -105c-19 -70 -28.5 -134.667 -28.5 -194
c12 7.33301 28.333 18.833 49 34.5s50 41.834 88 78.501c21.333 20.667 43.666 39.834 66.999 57.501s40 27.834 50 30.501c2.66699 0.666992 6 1.16699 10 1.5s7.33301 0.5 10 0.5c18.667 0 34.334 -8 47.001 -24s19 -32 19 -48z" />
    <glyph glyph-name="RawPlus" unicode="+" 
d="M1184 469h-467v-469h-115v469h-467v115h467v463h115v-463h467v-115z" />
    <glyph glyph-name="RawDash" unicode="&#x2212;" 
d="M1184 469h-1049v115h1049v-115z" />
    <glyph glyph-name="RawDash" unicode="-" 
d="M1184 469h-1049v115h1049v-115z" />
    <glyph glyph-name="RawSlash" unicode="&#x2215;" horiz-adv-x="649" 
d="M649 1389l-543 -1719h-106l543 1719h106z" />
    <glyph glyph-name="RawSlash" unicode="/" horiz-adv-x="649" 
d="M649 1389l-543 -1719h-106l543 1719h106z" />
    <glyph glyph-name="RawLess" unicode="&#x3c;" 
d="M1188 12l-1057 496v41l1057 493v-114l-860 -400l860 -401v-115z" />
    <glyph glyph-name="RawEqual" unicode="=" horiz-adv-x="1321" 
d="M1186 664h-1051v118h1051v-118zM1186 248h-1051v119h1051v-119z" />
    <glyph glyph-name="RawGreater" unicode="&#x3e;" 
d="M131 127l860 401l-860 400v114l1057 -493v-41l-1057 -496v115z" />
    <glyph glyph-name="RawAt" unicode="@" horiz-adv-x="1403" 
d="M1276 643c0 -91.333 -26.335 -185.834 -79.002 -283.501s-126.667 -146.5 -222 -146.5c-45.333 0 -81.333 9.16699 -108 27.5s-46.667 44.5 -60 78.5c-28.667 -31.333 -56.667 -56.5 -84 -75.5s-65 -28.5 -113 -28.5c-60 0 -104.333 20.833 -133 62.5
s-43 89.834 -43 144.501c0 96.667 33.333 190.167 100 280.5s144 135.5 232 135.5c30 0 55.5 -6.5 76.5 -19.5s38.5 -30.5 52.5 -52.5c6.66699 14.667 17.834 27.834 33.501 39.501s35.834 17.5 60.501 17.5c10 0 19.333 -0.666992 28 -2s18.667 -2.66602 30 -3.99902
l-77 -300l-42 -165c-1.33301 -4 -2.33301 -7.66699 -3 -11s-1 -6.33301 -1 -9c0 -19.333 5.66699 -32 17 -38s27.333 -9 48 -9c54.667 0 104.5 39.5 149.5 118.5s67.5 160.833 67.5 245.5c0 106.667 -39.5 200.667 -118.5 282s-171.833 122 -278.5 122
c-158.667 0 -288.167 -56.333 -388.5 -169s-150.5 -249 -150.5 -409c0 -138 44.167 -250 132.5 -336s200.5 -129 336.5 -129c57.333 0 115 8.16699 173 24.5s113.667 38.166 167 65.499l27 -57c-66.667 -36.667 -129.5 -63.167 -188.5 -79.5s-123.833 -24.5 -194.5 -24.5
c-170.667 0 -312.667 54.5 -426 163.5s-170 249.5 -170 421.5c0 160 71 299.333 213 418s294.333 178 457 178c133.333 0 246.5 -46.333 339.5 -139s139.5 -205.334 139.5 -338.001zM857.998 648.999c0 22 -4 47.999 -12 77.999s-23 45 -45 45
c-56 0 -106.5 -41.167 -151.5 -123.5s-67.5 -159.166 -67.5 -230.499c0 -23.333 4 -50.333 12 -81s27 -46 57 -46c50 0 97 40.167 141 120.5s66 159.5 66 237.5z" />
    <glyph glyph-name="RawLeftBracket" unicode="[" horiz-adv-x="682" 
d="M613 -332h-432v1721h432v-50h-180c-26 0 -48.167 -8 -66.5 -24s-27.5 -36.667 -27.5 -62v-1448c0 -24.667 9.16699 -45.167 27.5 -61.5s40.5 -24.5 66.5 -24.5h180v-51z" />
    <glyph glyph-name="RawRightBracket" unicode="]" horiz-adv-x="682" 
d="M502 -332h-432v49h180c26 0 48.167 8.16699 66.5 24.5s27.5 36.833 27.5 61.5v1452c0 25.333 -9.16699 46 -27.5 62s-40.5 24 -66.5 24h-180v50h432v-1723z" />
    <glyph glyph-name="RawUnderscore" unicode="_" horiz-adv-x="1188" 
d="M1085 -272h-983v100h983v-100z" />
    <glyph glyph-name="RawLeftBrace" unicode="{" horiz-adv-x="672" 
d="M573 -338c-132 0 -226.667 38.3311 -284 114.998c-30 40 -45 86.333 -45 139v422c0 84.667 -49.333 147.334 -148 188.001c53.333 26 90.333 51 111 75c24.667 29.333 37 69.333 37 120v422c0 45.333 15 91 45 137c50 76.667 144.667 115 284 115v-15
c-58 0 -104.333 -23.333 -139 -70c-28.667 -39.333 -43 -84.666 -43 -135.999v-408c0 -130 -53.333 -209.333 -160 -238c60.667 -20 102.5 -47.333 125.5 -82s34.5 -85.667 34.5 -153v-408c0 -52 15.667 -98.333 47 -139c35.333 -46.667 80.333 -70 135 -70v-14z" />
    <glyph glyph-name="RawVerticalBar" unicode="&#xf432;" horiz-adv-x="475" 
d="M299 -332h-123v1721h123v-1721z" />
    <glyph glyph-name="RawVerticalBar" unicode="|" horiz-adv-x="475" 
d="M299 -332h-123v1721h123v-1721z" />
    <glyph glyph-name="RawRightBrace" unicode="}" horiz-adv-x="672" 
d="M576 526c-98 -40.667 -147 -103.332 -147 -187.999v-422c0 -52.667 -15.333 -99 -46 -139c-57.333 -76.667 -152 -115 -284 -115v14c54.667 0 99.667 23.333 135 70c31.333 40.667 47 87 47 139v408c0 67.333 11.5 118.333 34.5 153s64.833 62 125.5 82
c-106.667 28.667 -160 108 -160 238v408c0 51.333 -14.333 96.666 -43 135.999c-34 46.667 -80.333 70 -139 70v15c139.333 0 234 -38.333 284 -115c30.667 -46 46 -91.667 46 -137v-422c0 -50.667 12.333 -90.667 37 -120c20 -24 56.667 -49 110 -75z" />
    <glyph glyph-name="RawTilde" unicode="&#x223c;" 
d="M1198 666c-18 -105.333 -52.1699 -183 -102.503 -233s-121.166 -75 -212.499 -75c-40 0 -80.833 9 -122.5 27s-85.5 46 -131.5 84s-87.5 66 -124.5 84s-69.833 27 -98.5 27c-53.333 0 -100.166 -14.667 -140.499 -44s-74.166 -75 -101.499 -137l-41 17
c24.667 88.667 64.334 155.834 119.001 201.501s122 68.5 202 68.5c38.667 0 79.167 -10.333 121.5 -31s84.5 -47.334 126.5 -80.001c50.667 -39.333 95.167 -67.833 133.5 -85.5s71.166 -26.5 98.499 -26.5c56 0 104 19.167 144 57.5s69.667 92.833 89 163.5z" />
    <glyph glyph-name="RawTilde" unicode="~" 
d="M1198 666c-18 -105.333 -52.1699 -183 -102.503 -233s-121.166 -75 -212.499 -75c-40 0 -80.833 9 -122.5 27s-85.5 46 -131.5 84s-87.5 66 -124.5 84s-69.833 27 -98.5 27c-53.333 0 -100.166 -14.667 -140.499 -44s-74.166 -75 -101.499 -137l-41 17
c24.667 88.667 64.334 155.834 119.001 201.501s122 68.5 202 68.5c38.667 0 79.167 -10.333 121.5 -31s84.5 -47.334 126.5 -80.001c50.667 -39.333 95.167 -67.833 133.5 -85.5s71.166 -26.5 98.499 -26.5c56 0 104 19.167 144 57.5s69.667 92.833 89 163.5z" />
    <glyph glyph-name="DownExclamation" unicode="&#xa1;" horiz-adv-x="682" 
d="M459 827c0 -34 -11.001 -62.833 -33.001 -86.5s-50 -35.5 -84 -35.5c-32.667 0 -60.667 11.833 -84 35.5s-35 52.5 -35 86.5c0 30 12.333 56.333 37 79s51.334 34 80.001 34c30 0 57.333 -10.5 82 -31.5s37 -48.167 37 -81.5zM413.999 170l40.499 -296.999
c11 -83.333 16.5 -144 16.5 -182c0 -52 -9.16699 -92.333 -27.5 -121s-52.166 -43 -101.499 -43c-44 0 -76.5 14.333 -97.5 43s-31.5 69 -31.5 121c0 34 5.83301 96.333 17.5 187s24.834 188 39.501 292c16.667 116 30.5 208.5 41.5 277.5l16.5 103.5h26l20 -118
c13.333 -78.667 26.666 -166.334 39.999 -263.001z" />
    <glyph glyph-name="Cent" unicode="&#xa2;" horiz-adv-x="909" 
d="M844 305c-88 -180.667 -193.334 -285.667 -316.001 -315v-197h-86v187c-119.333 -1.33301 -216 46 -290 142c-67.333 88 -101 193.333 -101 316c0 129.333 32.667 238.666 98 327.999c70.667 96 168.334 152 293.001 168v190h86v-186c69.333 -3.33301 131 -21 185 -53
c65.333 -38 99.333 -87.333 102 -148c1.33301 -24 -7.66699 -45 -27 -63s-41 -27 -65 -27c-23.333 0 -44.5 9.33301 -63.5 28s-28.5 39.334 -28.5 62.001c0 94.667 -52.667 142 -158 142c-83.333 0 -149.666 -38.333 -198.999 -115c-43.333 -67.333 -65 -148 -65 -242
c0 -103.333 26.667 -193.333 80 -270c59.333 -86 138.333 -129 237 -129c107.333 0 203.666 66.333 288.999 199z" />
    <glyph glyph-name="Sterling" unicode="&#xa3;" horiz-adv-x="1249" 
d="M1122 268c0 -13.333 -13.335 -41.665 -40.002 -84.998c-35.333 -56.667 -77 -103 -125 -139c-64.667 -48.667 -136 -73 -214 -73c-45.333 0 -93.666 14.667 -144.999 44l-129 85c-67.333 -86 -137.666 -129 -210.999 -129c-36 0 -66.833 11 -92.5 33
s-38.5 50.667 -38.5 86c0 55.333 22 98.333 66 129c38.667 26 87 39 145 39c24.667 0 52 -3.33301 82 -10c8 57.333 12 105.666 12 144.999c0 74 -4 166.333 -12 277h-246v94h238c-4 67.333 -6 115 -6 143c0 128.667 37 237.667 111 327c82.667 100 195 150 337 150
c58 0 111 -13.333 159 -40c56.667 -32 85 -74.333 85 -127c0 -33.333 -8.66699 -62.333 -26 -87c-19.333 -28.667 -44.333 -43 -75 -43c-70.667 0 -106 31 -106 93c0 24.667 8.83301 44.5 26.5 59.5s26.5 24.5 26.5 28.5c0 22 -12.667 39.667 -38 53
c-22.667 12 -49.667 18 -81 18c-158 0 -237 -128.333 -237 -385c0 -23.333 1.33301 -55 4 -95c3.33301 -46.667 5.33301 -78.334 6 -95.001h276v-94h-276c-2 -153.333 -28 -303.666 -78 -450.999c120 -54.667 214.333 -82 283 -82c55.333 0 107.333 12.667 156 38
c30.667 15.333 63.667 38.666 99 69.999c28.667 25.333 46 38 52 38c8 0 12 -5 12 -15zM394.998 141.001c-21.333 27.333 -54.667 41 -100 41c-75.333 0 -113 -26 -113 -78c0 -50 27.333 -75 82 -75c45.333 0 89 37.333 131 112z" />
    <glyph glyph-name="Yen" unicode="&#xa5;" horiz-adv-x="1208" 
d="M1159 1317c-78.667 -12.667 -156.333 -97.335 -233 -254.002l-183 -373h277v-82h-322v-135h322v-82h-322v-227c0 -83.333 50.667 -125 152 -125v-39h-477v39c100.667 0 151 41.667 151 125v227h-323v82h323v135h-323v82h278l-155 285l-110 205
c-56 88.667 -111 134.334 -165 137.001v39h451v-39c-74 0 -111 -21.333 -111 -64c0 -23.333 13 -59.333 39 -108l231 -436l226 444c20 40.667 30 73.334 30 98.001c0 44 -35.333 66 -106 66v39h350v-39z" />
    <glyph glyph-name="Section" unicode="&#xa7;" horiz-adv-x="1016" 
d="M872 508c0 -74.667 -22 -135.499 -66 -182.499s-102 -70.5 -174 -70.5c-9.33301 0 -18.666 0.333008 -27.999 1l-4 -4c62.667 -51.333 107 -95 133 -131c36.667 -52.667 55 -111.334 55 -176.001c0 -76.667 -31 -138.667 -93 -186c-57.333 -42.667 -125 -64 -203 -64
c-65.333 0 -127 18 -185 54c-66.667 42 -100 93.667 -100 155c0 26.667 9.33301 52.334 28 77.001c21.333 28 47.333 42 78 42c78 0 117 -37.667 117 -113c0 -26 -10.667 -47.333 -32 -64l-50 -36c6.66699 -20.667 29 -38.334 67 -53.001c32.667 -12.667 61.667 -19 87 -19
c48 0 88 13.667 120 41c34.667 28.667 52 67 52 115c0 68.667 -46 139.334 -138 212.001l-255 193c-92 85.333 -138 179 -138 281c0 76 22.167 136.5 66.5 181.5s103.5 67.5 177.5 67.5c10 0 20.333 -0.666992 31 -2l4 4c-66 55.333 -111.333 99.333 -136 132
c-42 54 -63 112 -63 174c0 78.667 29.667 141 89 187c54 41.333 121.333 62 202 62c66 0 124.333 -18.333 175 -55c56.667 -40.667 85 -93 85 -157c0 -67.333 -36.667 -101 -110 -101c-28 0 -51.667 8.66699 -71 26c-21.333 19.333 -32 45.666 -32 78.999
c0 14.667 5 29 15 43c7.33301 10 18.666 21.667 33.999 35c20 16.667 31 26 33 28c-39.333 39.333 -83.666 59 -132.999 59c-46.667 0 -86.334 -12.667 -119.001 -38c-35.333 -28 -53 -65 -53 -111c0 -60 46 -128.667 138 -206l258 -210c92 -89.333 138 -179.333 138 -270z
M764 451.001c0 54 -48.166 123.332 -144.499 207.999s-172.5 127 -228.5 127c-40.667 0 -74.667 -13.833 -102 -41.5s-41 -62.167 -41 -103.5c0 -59.333 46.167 -131.166 138.5 -215.499s168.166 -126.5 227.499 -126.5c46 0 82.5 13.667 109.5 41s40.5 64.333 40.5 111z
" />
    <glyph glyph-name="DoubleDot" unicode="&#xf02f;" horiz-adv-x="612" 
d="M612 199c0 -28.667 -9.99902 -53 -29.999 -73s-44 -30 -72 -30c-28.667 0 -52.834 10 -72.501 30s-29.5 44.333 -29.5 73c0 27.333 9.83301 51.166 29.5 71.499s43.834 30.5 72.501 30.5c27.333 0 51.166 -10.167 71.499 -30.5s30.5 -44.166 30.5 -71.499zM205.001 199
c0 -28.667 -10.166 -53 -30.499 -73s-44.5 -30 -72.5 -30c-28.667 0 -52.834 10 -72.501 30s-29.5 44.333 -29.5 73c0 27.333 10 51.166 30 71.499s44 30.5 72 30.5s52.167 -10.167 72.5 -30.5s30.5 -44.166 30.5 -71.499z" />
    <glyph glyph-name="DoubleDot" unicode="&#xa8;" horiz-adv-x="612" 
d="M612 199c0 -28.667 -9.99902 -53 -29.999 -73s-44 -30 -72 -30c-28.667 0 -52.834 10 -72.501 30s-29.5 44.333 -29.5 73c0 27.333 9.83301 51.166 29.5 71.499s43.834 30.5 72.501 30.5c27.333 0 51.166 -10.167 71.499 -30.5s30.5 -44.166 30.5 -71.499zM205.001 199
c0 -28.667 -10.166 -53 -30.499 -73s-44.5 -30 -72.5 -30c-28.667 0 -52.834 10 -72.501 30s-29.5 44.333 -29.5 73c0 27.333 10 51.166 30 71.499s44 30.5 72 30.5s52.167 -10.167 72.5 -30.5s30.5 -44.166 30.5 -71.499z" />
    <glyph glyph-name="Copyright" unicode="&#xa9;" horiz-adv-x="1550" 
d="M1468 674c0 -192.667 -68.167 -357.667 -204.5 -495s-298.833 -206 -487.5 -206c-188 0 -350.667 68.667 -488 206s-206 302.333 -206 495s68.667 358.834 206 498.501s300 209.5 488 209.5c188.667 0 351.167 -69.833 487.5 -209.5s204.5 -305.834 204.5 -498.501z
M1358 674c0 162 -57.333 303.833 -172 425.5s-251.334 182.5 -410.001 182.5c-158 0 -295.167 -60.333 -411.5 -181s-174.5 -262.334 -174.5 -425.001c0 -161.333 58.167 -302.666 174.5 -423.999s253.5 -182 411.5 -182c158.667 0 295.334 60.333 410.001 181
s172 261.667 172 423zM1083 459c-14.667 -38.667 -47.832 -78.3311 -99.499 -118.998s-120.167 -61 -205.5 -61c-120 0 -211.833 37.5 -275.5 112.5s-96.834 165.167 -99.501 270.5c-2.66699 107.333 31.5 201.333 102.5 282s166.167 121 285.5 121
c52.667 0 111.167 -8.5 175.5 -25.5l96.5 -25.5v-209h-62c-6.66699 53.333 -27.334 98.666 -62.001 135.999s-78.667 56 -132 56c-74 0 -131.5 -29 -172.5 -87s-61.5 -126.333 -61.5 -205c0 -102.667 23.333 -186.5 70 -251.5s108 -97.5 184 -97.5
c52.667 0 96.834 12.167 132.501 36.5s60.5 53.166 74.5 86.499z" />
    <glyph glyph-name="Not" unicode="&#xac;" horiz-adv-x="1311" 
d="M1184 172h-113v410h-944v118h1057v-528z" />
    <glyph glyph-name="RegisteredTrademark" unicode="&#xae;" horiz-adv-x="1550" 
d="M1468 674c0 -192.667 -68.167 -357.667 -204.5 -495s-298.833 -206 -487.5 -206c-188 0 -350.667 68.667 -488 206s-206 302.333 -206 495s68.667 358.834 206 498.501s300 209.5 488 209.5c188.667 0 351.167 -69.833 487.5 -209.5s204.5 -305.834 204.5 -498.501z
M1358 674c0 162 -57.333 303.833 -172 425.5s-251.334 182.5 -410.001 182.5c-158 0 -295.167 -60.333 -411.5 -181s-174.5 -262.334 -174.5 -425.001c0 -161.333 58.167 -302.666 174.5 -423.999s253.5 -182 411.5 -182c158.667 0 295.334 60.333 410.001 181
s172 261.667 172 423zM1143 317l-146.003 -0.000976562c-20.667 12 -40.5 30.333 -59.5 55s-38.833 60.667 -59.5 108c-14 32 -24.167 57.667 -30.5 77s-16.166 38 -29.499 56c-10 14 -24.5 25.833 -43.5 35.5s-40.5 14.5 -64.5 14.5
c-5.33301 0 -11.666 -0.666992 -18.999 -2l-11 -2v-237c0 -22 6 -38.667 18 -50s27.667 -17 47 -17c3.33301 0 7 0.166992 11 0.5l6 0.5v-39h-307v41l8 -1.5c5.33301 -1 10.333 -1.5 15 -1.5c19.333 0 35 4.83301 47 14.5s18 27.167 18 52.5v553
c0 23.333 -6.33301 39.333 -19 48s-26.667 13 -42 13c-4.66699 0 -10 -0.333008 -16 -1l-9 -1v41h352c82 0 143.5 -16 184.5 -48s61.5 -78.667 61.5 -140c0 -52.667 -18.333 -96.667 -55 -132s-82.667 -57 -138 -65c41.333 -16.667 71.333 -38.667 90 -66
s39.334 -67.666 62.001 -120.999c15.333 -36 34 -69.5 56 -100.5s46.333 -46.5 73 -46.5v-39zM912.997 867.999c0 49.333 -12.832 89.333 -38.499 120s-65.167 46 -118.5 46c-19.333 0 -36.833 -2 -52.5 -6s-23.5 -18.333 -23.5 -43v-168.5v-103.5l21.5 -3
c14.333 -2 26.833 -3 37.5 -3c57.333 0 100.666 14.333 129.999 43s44 68 44 118z" />
    <glyph glyph-name="Degree" unicode="&#xb0;" horiz-adv-x="745" 
d="M680 1096c0 -86 -29.833 -158.833 -89.5 -218.5s-132.167 -89.5 -217.5 -89.5c-86 0 -158.667 29.833 -218 89.5s-89 132.5 -89 218.5c0 85.333 29.667 157.833 89 217.5s132 89.5 218 89.5c84.667 0 157 -30 217 -90s90 -132.333 90 -217zM600 1096
c0 62 -22.333 115.334 -67 160.001s-98 67 -160 67c-63.333 0 -117.166 -22.167 -161.499 -66.5s-66.5 -97.833 -66.5 -160.5c0 -64 22.167 -118 66.5 -162s98.166 -66 161.499 -66c62.667 0 116.167 22.167 160.5 66.5s66.5 98.166 66.5 161.499z" />
    <glyph glyph-name="PlusMinus" unicode="&#xb1;" 
d="M1184 573h-467v-372h-115v372h-467v115h467v395h115v-395h467v-115zM1184 12h-1049v107h1049v-107z" />
    <glyph glyph-name="Micro" unicode="&#xb5;" horiz-adv-x="1081" 
d="M657 301l-0.000976562 594.001l174 31v-602c0 -90 3.66699 -152.333 11 -187c10.667 -53.333 32.334 -80 65.001 -80s56.334 11 71.001 33c8 12 15 32 21 60c4 21.333 9.66699 32 17 32c10.667 0 16 -15 16 -45c0 -38.667 -10.667 -72.667 -32 -102
c-28 -38.667 -69 -58 -123 -58h-9c-124 0 -190.667 64.333 -200 193c-33.333 -56.667 -55 -90.667 -65 -102c-49.333 -56 -108.333 -84 -177 -84c-93.333 0 -154 36.667 -182 110h-2v-520h-189c30 190 45 364.667 45 524v797l144 27v-582c0 -54.667 15.333 -107.667 46 -159
c40 -64.667 93.667 -97 161 -97c55.333 0 105.666 29 150.999 87c38 49.333 57 92.666 57 129.999z" />
    <glyph glyph-name="Paragraph" unicode="&#xb6;" horiz-adv-x="1114" 
d="M991 -410l-56.999 0.000976562v1680h-186v-1680h-113v893c-42 -5.33301 -79.667 -8 -113 -8c-98.667 0 -191.334 37.667 -278.001 113c-108 94 -162 221 -162 381c0 117.333 40.667 209.666 122 276.999c88.667 73.333 218 110 388 110h399v-1766zM635.001 557.001
l0.00292969 629.001c0 62.667 -21.333 94 -64 94c-74.667 0 -137.334 -21.667 -188.001 -65c-65.333 -56.667 -98 -144.334 -98 -263.001c0 -139.333 34.333 -245.333 103 -318c52 -55.333 111.667 -83 179 -83c11.333 0 22.666 1 33.999 3s22.666 3 33.999 3z" />
    <glyph glyph-name="CenterDot" unicode="&#xb7;" horiz-adv-x="489" 
d="M362 522c0 -32 -11.667 -59.333 -35 -82s-51 -34 -83 -34c-32.667 0 -60.334 11.167 -83.001 33.5s-34 49.833 -34 82.5c0 34 11.333 62.333 34 85s50.334 34 83.001 34s60.5 -11.5 83.5 -34.5s34.5 -51.167 34.5 -84.5z" />
    <glyph glyph-name="DownQuestion" unicode="&#xbf;" horiz-adv-x="909" 
d="M586 819c0 -32.667 -12.001 -60.332 -36.001 -82.999s-51 -34 -81 -34c-28.667 0 -55.667 11.667 -81 35s-38 50.666 -38 81.999s12.333 59 37 83s52 36 82 36c28.667 0 55.334 -11.667 80.001 -35s37 -51.333 37 -84zM808.999 -157.998
c0 -98 -35.1699 -170.171 -105.503 -216.504s-145.166 -69.5 -224.499 -69.5c-116 0 -208.167 29.333 -276.5 88s-102.5 134.334 -102.5 227.001c0 65.333 14.667 122 44 170s67.333 102 114 162l61 78c34.667 44 63.5 90.833 86.5 140.5s37.5 105.834 43.5 168.501h36
c-2.66699 -45.333 -10.5 -98.5 -23.5 -159.5s-28.833 -112.5 -47.5 -154.5l-37 -83c-26 -58.667 -46.833 -116.5 -62.5 -173.5s-23.5 -106.5 -23.5 -148.5c0 -68 17.333 -129 52 -183s90.334 -81 167.001 -81c38 0 81.667 13.333 131 40s69 63.667 59 111
c-4.66699 22 -15.667 40.167 -33 54.5s-29.333 28.5 -36 42.5c-12.667 26 -13.5 48.333 -2.5 67s28.167 32.334 51.5 41.001c40.667 15.333 72.334 8.33301 95.001 -21s34 -62.666 34 -99.999z" />
    <glyph glyph-name="CapitalEth" unicode="&#xd0;" horiz-adv-x="1479" 
d="M1411 674c0 -231.333 -82.333 -405.667 -247 -523c-142 -100.667 -328.667 -151 -560 -151h-563v39c120 0 180 37.667 180 113v462h-180v127h180v463c0 75.333 -60 113 -180 113v39h555c233.333 0 421 -49.333 563 -148c168 -118 252 -296 252 -534zM1188 658.999
c0 208 -62.666 366.667 -187.999 476c-112.667 98 -262.334 147 -449.001 147c-50.667 0 -82 -4 -94 -12c-18 -13.333 -27 -47 -27 -101v-428h236v-127h-236v-426c0 -70.667 47.667 -106 143 -106c180.667 0 326 47 436 141c119.333 102.667 179 248 179 436z" />
    <glyph glyph-name="Times" unicode="&#xd7;" horiz-adv-x="1315" 
d="M1194 70l-82 -82l-455 456l-454 -456l-82 82l454 454l-454 457l82 82l454 -457l455 457l82 -82l-457 -457z" />
    <glyph glyph-name="CapitalYAcute" unicode="&#xdd;" horiz-adv-x="1479" 
d="M1130 1708c0 -32.667 -39.333 -74.333 -118 -125l-258 -164h-82l289 291c38.667 39.333 76.667 59 114 59c12.667 0 25 -7 37 -21s18 -27.333 18 -40zM1440 1315c-60 0 -124.001 -37.667 -192.001 -113c-32.667 -36 -78.667 -99.333 -138 -190l-256 -391v-463
c0 -83.333 69 -123 207 -119v-39h-623v39c138 0 207 39.667 207 119v444l-264 395c-70 104.667 -117 171 -141 199c-69.333 80.667 -134.333 121 -195 121v39h573v-39c-96.667 0 -145 -18.333 -145 -55c0 -27.333 15 -63.666 45 -108.999l293 -442l301 475
c15.333 23.333 23 45 23 65c0 27.333 -18.667 46.666 -56 57.999c-27.333 8 -56.666 10.667 -87.999 8v39h449v-41z" />
    <glyph glyph-name="CapitalThorn" unicode="&#xde;" horiz-adv-x="1139" 
d="M1110 731c0 -250 -184.332 -374.999 -552.999 -374.999c-34 0 -82.333 2 -145 6v-202c0 -80.667 60 -121 180 -121v-39h-569v39c120 0 180 40.333 180 121v1036c0 80.667 -56.667 121 -170 121v39h549v-39c-70.667 0 -117.334 -14 -140.001 -42
c-20 -24.667 -30 -76.334 -30 -155.001c38.667 2 79.667 2.66699 123 2c383.333 -2 575 -132.333 575 -391zM885.001 743.001c0 199.333 -127 299.001 -381 299.001c-38 0 -61.667 -2.66699 -71 -8c-14 -8.66699 -21 -30.334 -21 -65.001v-527c30 -2.66699 53.667 -4 71 -4
c120 0 210.667 17 272 51c86.667 48 130 132.667 130 254z" />
    <glyph glyph-name="Eth" unicode="&#xf0;" horiz-adv-x="1024" 
d="M963 492c0 -152.667 -42.165 -276.167 -126.498 -370.5s-193.166 -141.5 -326.499 -141.5c-131.333 0 -239 45 -323 135s-126 208.667 -126 356c0 124.667 39 232.334 117 323.001c83.333 96 188.666 144 315.999 144c24.667 0 49.667 -2.66699 75 -8
c-22.667 48 -61.334 100.333 -116.001 157l-269 -90l-69 99c69.333 14 158 37 266 69c-59.333 69.333 -133.666 128.666 -222.999 177.999l112 56c87.333 -46 174.666 -106.667 261.999 -182l271 90l69 -99c-98.667 -18 -187.334 -40.333 -266.001 -67
c238 -248 357 -464.333 357 -649zM774.002 393c0 126.667 -21.999 234.667 -65.999 324c-52.667 106.667 -127.667 160 -225 160c-78.667 0 -138.667 -34.333 -180 -103c-35.333 -58 -53 -131 -53 -219c0 -132 19.667 -244 59 -336
c51.333 -118.667 128.666 -178 231.999 -178c74 0 132 34 174 102c39.333 64 59 147.333 59 250z" />
    <glyph glyph-name="Divide" unicode="&#xf7;" 
d="M788 934c0 -30.667 -11.333 -57.167 -34 -79.5s-49.334 -33.5 -80.001 -33.5c-31.333 0 -57.666 11 -78.999 33s-32 48.667 -32 80c0 30.667 10.667 57.167 32 79.5s47.666 33.5 78.999 33.5c30.667 0 57.334 -11.167 80.001 -33.5s34 -48.833 34 -79.5zM1184 469h-1049
v115h1049v-115zM788 104c0 -30.667 -11.333 -57 -34 -79s-49.334 -33 -80.001 -33c-31.333 0 -57.666 11 -78.999 33s-32 48.333 -32 79c0 31.333 10.667 58 32 80s47.666 33 78.999 33c30.667 0 57.334 -11 80.001 -33s34 -48.667 34 -80z" />
    <glyph glyph-name="YAcute" unicode="&#xfd;" horiz-adv-x="1022" 
d="M850 1327c0 -32.667 -39.666 -74.333 -118.999 -125l-258 -164h-82l289 291c39.333 40 77.666 60 114.999 60c12.667 0 25 -7.16699 37 -21.5s18 -27.833 18 -40.5zM975.001 891.001c-16.667 0 -35.666 -12.999 -56.999 -38.999c-24 -27.333 -44 -62 -60 -104l-305 -803
c-46 -120 -89.667 -208.667 -131 -266c-60.667 -82 -130.334 -123 -209.001 -123c-42 0 -77.333 10.667 -106 32c-30.667 22.667 -46 52 -46 88c0 57.333 35.667 86 107 86c18.667 0 41.667 -6 69 -18s51.333 -18 72 -18c43.333 0 92.666 59.333 147.999 178
c27.333 59.333 40.333 105.666 39 138.999l-267 580c-49.333 107.333 -78.666 169 -87.999 185c-33.333 54 -70 81 -110 81v29h422v-29c-81.333 0 -122 -19.333 -122 -58c0 -17.333 14.667 -58 44 -122l215 -473l201 571c2.66699 8 4 15.667 4 23
c0 39.333 -32.333 59 -97 59v29h277v-27z" />
    <glyph glyph-name="Thorn" unicode="&#xfe;" horiz-adv-x="1028" 
d="M967 467c0 -129.333 -34.668 -240.999 -104.001 -334.999c-74 -101.333 -169 -152 -285 -152c-119.333 0 -200.666 27 -243.999 81v-352c0 -83.333 51.667 -125 155 -125v-28h-485v28c104 0 156 41.667 156 125v1479c0 53.333 -22 80 -66 80h-67v41
c110.667 22 213 52 307 90v-623c60.667 108 156.334 162 287.001 162c109.333 0 195.666 -47.333 258.999 -142c58 -86.667 87 -196.334 87 -329.001zM790.999 414.001c0 105.333 -20.001 195.667 -60.001 271c-47.333 89.333 -114.333 134 -201 134
c-126.667 0 -192 -60 -196 -180v-481c0 -30.667 19.833 -57.167 59.5 -79.5s86.834 -33.5 141.501 -33.5c89.333 0 156.333 40.333 201 121c36.667 65.333 55 148 55 248z" />
    <glyph glyph-name="CapitalABar" unicode="&#x100;" horiz-adv-x="1479" 
d="M1022 1491h-639v108h639v-108zM1446 0l-522 -0.000976562v37c50 4 81.333 7.33301 94 10c32.667 10.667 49 32.667 49 66c0 32.667 -18.333 91.334 -55 176.001l-70 153h-534c-74 -184 -111 -289 -111 -315c0 -35.333 15.667 -60 47 -74c15.333 -6.66699 46 -12 92 -16
v-37h-405v37c66.667 8 122 51 166 129l88 209l426 1003h41l510 -1161c28.667 -65.333 49.667 -106.333 63 -123c26 -31.333 66.333 -50.333 121 -57v-37zM913 525.999l-235 564l-236 -564h471z" />
    <glyph glyph-name="ABar" unicode="&#x101;" horiz-adv-x="909" 
d="M772 1120h-641v111h641v-111zM905 90c-56 -68 -116.67 -101.998 -182.003 -101.998c-83.333 0 -127.666 49.667 -132.999 149c-114.667 -100.667 -215.667 -151 -303 -151c-60 0 -110.167 20.5 -150.5 61.5s-60.5 91.5 -60.5 151.5c0 103.333 62.667 192.666 188 267.999
c53.333 31.333 161.333 77 324 137v84c0 74 -8.33301 124.667 -25 152c-23.333 38 -69 57 -137 57c-35.333 0 -66.666 -7.66699 -93.999 -23c-32.667 -17.333 -49 -42.333 -49 -75c0 -8.66699 1.66699 -21.834 5 -39.501s5 -30.5 5 -38.5c0 -60 -28.667 -90 -86 -90
c-26 0 -48.167 9.16699 -66.5 27.5s-27.5 40.5 -27.5 66.5c0 70.667 41.667 127.334 125 170.001c66.667 35.333 138.334 53 215.001 53c107.333 0 184.333 -27.333 231 -82s70 -136.334 70 -245.001v-402c0 -79.333 20.333 -119 61 -119c26 0 56 13.667 90 41v-51z
M587.997 238.002v317.001c-222.667 -72.667 -334 -168.334 -334 -287.001c0 -46 13 -84.5 39 -115.5s61.333 -46.5 106 -46.5c44 0 85 11 123 33c44 24.667 66 57.667 66 99z" />
    <glyph glyph-name="CapitalACup" unicode="&#x102;" horiz-adv-x="1479" 
d="M1024 1800c-20.667 -214 -121.669 -321 -303.002 -321c-87.333 0 -155.666 32.667 -204.999 98c-42 57.333 -65.333 131.666 -70 222.999h64c18 -130.667 95 -196 231 -196c64.667 0 114.667 17.667 150 53c28.667 28.667 53.334 76.334 74.001 143.001h59zM1446 0
l-522 -0.000976562v37c50 4 81.333 7.33301 94 10c32.667 10.667 49 32.667 49 66c0 32.667 -18.333 91.334 -55 176.001l-70 153h-534c-74 -184 -111 -289 -111 -315c0 -35.333 15.667 -60 47 -74c15.333 -6.66699 46 -12 92 -16v-37h-405v37c66.667 8 122 51 166 129
l88 209l426 1003h41l510 -1161c28.667 -65.333 49.667 -106.333 63 -123c26 -31.333 66.333 -50.333 121 -57v-37zM912.998 525.999l-235 564l-236 -564h471z" />
    <glyph glyph-name="ACup" unicode="&#x103;" horiz-adv-x="909" 
d="M768 1360c-20.667 -214.667 -122.335 -321.999 -305.002 -321.999c-87.333 0 -155.666 33 -204.999 99c-42 57.333 -65.333 131.666 -70 222.999h64c18 -132.667 95 -199 231 -199c63.333 0 113.333 18.667 150 56c28.667 30 53.334 77.667 74.001 143h61z
M904.999 90.001c-56 -68 -116.67 -101.998 -182.003 -101.998c-83.333 0 -127.666 49.667 -132.999 149c-114.667 -100.667 -215.667 -151 -303 -151c-60 0 -110.167 20.5 -150.5 61.5s-60.5 91.5 -60.5 151.5c0 103.333 62.667 192.666 188 267.999
c53.333 31.333 161.333 77 324 137v84c0 74 -8.33301 124.667 -25 152c-23.333 38 -69 57 -137 57c-35.333 0 -66.666 -7.66699 -93.999 -23c-32.667 -17.333 -49 -42.333 -49 -75c0 -8.66699 1.66699 -21.834 5 -39.501s5 -30.5 5 -38.5c0 -60 -28.667 -90 -86 -90
c-26 0 -48.167 9.16699 -66.5 27.5s-27.5 40.5 -27.5 66.5c0 70.667 41.667 127.334 125 170.001c66.667 35.333 138.334 53 215.001 53c107.333 0 184.333 -27.333 231 -82s70 -136.334 70 -245.001v-402c0 -79.333 20.333 -119 61 -119c26 0 56 13.667 90 41v-51z
M587.996 238.003v317.001c-222.667 -72.667 -334 -168.334 -334 -287.001c0 -46 13 -84.5 39 -115.5s61.333 -46.5 106 -46.5c44 0 85 11 123 33c44 24.667 66 57.667 66 99z" />
    <glyph glyph-name="CapitalCAcute" unicode="&#x106;" horiz-adv-x="1366" 
d="M1067 1765c0 -31.333 -21 -60.667 -63 -88l-316 -198h-82l301 303c34 34 64 51 90 51c46.667 0 70 -22.667 70 -68zM1296 226.999c-64 -82 -144.166 -146.169 -240.499 -192.502s-196.833 -69.5 -301.5 -69.5c-210.667 0 -380.5 63.833 -509.5 191.5
s-193.5 296.834 -193.5 507.501c0 208.667 65.5 379.834 196.5 513.501s301.167 200.5 510.5 200.5c53.333 0 122 -10.833 206 -32.5s134.667 -32.5 152 -32.5c48 0 78.667 21.667 92 65h43l19 -458h-47c-74 252 -223 378 -447 378c-165.333 0 -291 -68 -377 -204
c-73.333 -116 -110 -261 -110 -435c0 -166 42.333 -304.333 127 -415c92.667 -123.333 219.667 -185 381 -185c163.333 0 316.666 68.333 459.999 205z" />
    <glyph glyph-name="CAcute" unicode="&#x107;" horiz-adv-x="909" 
d="M780 1329c0 -32.667 -20.333 -62 -61 -88l-316 -199h-84l302 304c34 34 64.667 51 92 51c44.667 0 67 -22.667 67 -68zM844 305c-101.333 -215.333 -235.336 -323 -402.003 -323c-121.333 0 -218.666 47 -291.999 141c-68.667 86 -103 191 -103 315
c0 138 43 256.5 129 355.5s197.333 148.5 334 148.5c70.667 0 136.334 -16.333 197.001 -49c72 -39.333 108 -91.333 108 -156c0 -60 -31.333 -90 -94 -90c-38 0 -67.333 21.333 -88 64c-1.33301 2.66699 -13.666 40 -36.999 112c-22 41.333 -61.667 62 -119 62
c-88.667 0 -157.667 -40.333 -207 -121c-42 -68 -63 -149.333 -63 -244c0 -102 27.333 -190.667 82 -266c60 -83.333 139 -125 237 -125c106.667 0 203 64.333 289 193z" />
    <glyph glyph-name="CapitalCHacek" unicode="&#x10c;" horiz-adv-x="1366" 
d="M1071 1821l-256 -342h-129l-256 342h72l250 -211l247 211h72zM1296 227c-64 -82 -144.166 -146.169 -240.499 -192.502s-196.833 -69.5 -301.5 -69.5c-210.667 0 -380.5 63.833 -509.5 191.5s-193.5 296.834 -193.5 507.501c0 208.667 65.5 379.834 196.5 513.501
s301.167 200.5 510.5 200.5c53.333 0 122 -10.833 206 -32.5s134.667 -32.5 152 -32.5c48 0 78.667 21.667 92 65h43l19 -458h-47c-74 252 -223 378 -447 378c-165.333 0 -291 -68 -377 -204c-73.333 -116 -110 -261 -110 -435c0 -166 42.333 -304.333 127 -415
c92.667 -123.333 219.667 -185 381 -185c163.333 0 316.666 68.333 459.999 205z" />
    <glyph glyph-name="CHacek" unicode="&#x10d;" horiz-adv-x="909" 
d="M784 1384l-256 -342h-127l-256 342h70l250 -210l250 210h69zM844 305c-101.333 -215.333 -235.336 -323 -402.003 -323c-121.333 0 -218.666 47 -291.999 141c-68.667 86 -103 191 -103 315c0 138 43 256.5 129 355.5s197.333 148.5 334 148.5
c70.667 0 136.334 -16.333 197.001 -49c72 -39.333 108 -91.333 108 -156c0 -60 -31.333 -90 -94 -90c-38 0 -67.333 21.333 -88 64c-1.33301 2.66699 -13.666 40 -36.999 112c-22 41.333 -61.667 62 -119 62c-88.667 0 -157.667 -40.333 -207 -121
c-42 -68 -63 -149.333 -63 -244c0 -102 27.333 -190.667 82 -266c60 -83.333 139 -125 237 -125c106.667 0 203 64.333 289 193z" />
    <glyph glyph-name="CapitalEBar" unicode="&#x112;" horiz-adv-x="1251" 
d="M1022 1491h-639v108h639v-108zM1223 346l-93.001 -346h-1107v37c74.667 8 123.334 22.667 146.001 44s34 68 34 140v912c0 72 -11.667 119.333 -35 142s-71.666 36.667 -144.999 42v39h1087l8 -295h-51c-18 96.667 -50 158.667 -96 186c-34 20.667 -105.667 31 -215 31
h-279c-28.667 0 -46.667 -4.5 -54 -13.5s-11 -27.833 -11 -56.5v-456h315c83.333 0 138 11.833 164 35.5s46.333 77.167 61 160.5h47v-475h-47c-16 83.333 -35.667 136 -59 158c-28.667 26 -84 39 -166 39h-315v-506c0 -40 13 -64.667 39 -74
c18.667 -6.66699 95.667 -10 231 -10c139.333 0 237.666 13.667 294.999 41c73.333 35.333 136 110.333 188 225h58z" />
    <glyph glyph-name="EBar" unicode="&#x113;" horiz-adv-x="909" 
d="M768 1120h-639v111h639v-111zM862 319c-31.333 -96.667 -85.333 -177 -162 -241c-80 -68.667 -169.333 -103 -268 -103c-124 0 -222.333 48.667 -295 146c-64 87.333 -96 195 -96 323c0 134 37 248 111 342c80 101.333 185.667 152 317 152
c106.667 0 192 -35.5 256 -106.5s96 -160.5 96 -268.5h-635c6 -122.667 31.333 -221.667 76 -297c57.333 -96.667 142 -145 254 -145c121.333 0 225 70.333 311 211zM612 629c-8 74.667 -24.333 130 -49 166c-32.667 46 -83 69 -151 69c-122 0 -196 -78.333 -222 -235h422z
" />
    <glyph glyph-name="CapitalECup" unicode="&#x114;" horiz-adv-x="1251" 
d="M940 1800c-20.667 -214 -122.332 -321 -304.999 -321c-88.667 0 -157 32.667 -205 98c-40.667 56 -63.334 130.333 -68.001 223h62c18 -130.667 95.667 -196 233 -196c63.333 0 112.666 17.667 147.999 53c28.667 30 53.334 77.667 74.001 143h61zM1223 346l-93.001 -346
h-1107v37c74.667 8 123.334 22.667 146.001 44s34 68 34 140v912c0 72 -11.667 119.333 -35 142s-71.666 36.667 -144.999 42v39h1087l8 -295h-51c-18 96.667 -50 158.667 -96 186c-34 20.667 -105.667 31 -215 31h-279c-28.667 0 -46.667 -4.5 -54 -13.5
s-11 -27.833 -11 -56.5v-456h315c83.333 0 138 11.833 164 35.5s46.333 77.167 61 160.5h47v-475h-47c-16 83.333 -35.667 136 -59 158c-28.667 26 -84 39 -166 39h-315v-506c0 -40 13 -64.667 39 -74c18.667 -6.66699 95.667 -10 231 -10
c139.333 0 237.666 13.667 294.999 41c73.333 35.333 136 110.333 188 225h58z" />
    <glyph glyph-name="ECup" unicode="&#x115;" horiz-adv-x="909" 
d="M756 1360c-20.667 -214.667 -122.335 -322 -305.002 -322c-89.333 0 -157.666 33 -204.999 99c-41.333 56 -64 130.333 -68 223h62c17.333 -132.667 95 -199 233 -199c106.667 0 180.334 66.333 221.001 199h62zM861.999 319c-31.333 -96.667 -85.333 -177 -162 -241
c-80 -68.667 -169.333 -103 -268 -103c-124 0 -222.333 48.667 -295 146c-64 87.333 -96 195 -96 323c0 134 37 248 111 342c80 101.333 185.667 152 317 152c106.667 0 192 -35.5 256 -106.5s96 -160.5 96 -268.5h-635c6 -122.667 31.333 -221.667 76 -297
c57.333 -96.667 142 -145 254 -145c121.333 0 225 70.333 311 211zM611.999 629c-8 74.667 -24.333 130 -49 166c-32.667 46 -83 69 -151 69c-122 0 -196 -78.333 -222 -235h422z" />
    <glyph glyph-name="CapitalICup" unicode="&#x12c;" horiz-adv-x="682" 
d="M633 1800c-20.667 -214 -122.333 -321 -305 -321c-88.667 0 -157 32.667 -205 98c-41.333 56 -64 130.333 -68 223h62c17.333 -130.667 95 -196 233 -196c62.667 0 112 17.667 148 53c28.667 30 53 77.667 73 143h62zM639.001 0h-606v37
c80.667 5.33301 132.334 17 155.001 35c28.667 21.333 43 71 43 149v912c0 76 -14.333 125.667 -43 149c-22.667 19.333 -74.334 31 -155.001 35v39h606v-39c-80.667 -4 -132.667 -15.667 -156 -35c-28.667 -23.333 -43 -73 -43 -149v-912c0 -78 14.333 -127.667 43 -149
c23.333 -18 75.333 -29.667 156 -35v-37z" />
    <glyph glyph-name="ICup" unicode="&#x12d;" horiz-adv-x="569" 
d="M571 1360c-20 -214.667 -121.669 -322 -305.002 -322c-88.667 0 -157 33 -205 99c-40.667 56 -63 130.333 -67 223h61c18 -132.667 96 -199 234 -199c62.667 0 112.334 18.667 149.001 56c28.667 30 53.334 77.667 74.001 143h59zM525.998 0h-485.001v29
c70.667 6.66699 115.334 20.167 134.001 40.5s28 66.833 28 139.5v475c0 40.667 -2.66699 69.334 -8 86.001c-10 30 -31.333 45 -64 45c-19.333 0 -46.666 -5.33301 -81.999 -16v30c112 37.333 207.667 71 287 101c14.667 5.33301 27 8.66602 37 9.99902
c1.33301 -5.33301 2 -249 2 -731c0 -70 8 -115 24 -135c19.333 -24.667 61.666 -39.667 126.999 -45v-29z" />
    <glyph glyph-name="DotlessI" unicode="&#x131;" horiz-adv-x="569" 
d="M530 0h-484.999v29c55.333 3.33301 94 13 116 29c26.667 20 40 55.333 40 106v528c0 82 -23.333 123 -70 123c-12.667 0 -41.334 -4.66699 -86.001 -14v28l330 109v-774c0 -50.667 13.333 -86 40 -106c22 -16 60.333 -25.667 115 -29v-29z" />
    <glyph glyph-name="CapitalLSlash" unicode="&#x141;" horiz-adv-x="1350" 
d="M1323 356l-98 -356h-1102v39c120 0 180 41.667 180 125v299l-172 -211h-104l276 336v604c0 83.333 -60 125 -180 125v39h569v-39c-120 0 -180 -41.667 -180 -125v-350l219 268h103l-322 -393v-553c0 -53.333 68.333 -80 205 -80c164 0 275 10.333 333 31
c97.333 34.667 171.333 115 222 241h51z" />
    <glyph glyph-name="LSlash" unicode="&#x142;" horiz-adv-x="715" 
d="M688 1012l-255.999 -316v-532c0 -46.667 10.333 -79.334 31 -98.001c22.667 -20.667 65 -33 127 -37v-29h-490v29c62 4 104.333 16.333 127 37c20.667 18.667 31 51.334 31 98.001v319l-127 -155h-104l231 282v537c0 68.667 -8 108.667 -24 120
c-10.667 7.33301 -55.334 11 -134.001 11v29c116 21.333 226.667 51.333 332 90v-576l154 191h102z" />
    <glyph glyph-name="CapitalODoubleAcute" unicode="&#x150;" horiz-adv-x="1479" 
d="M1196 1749c0 -30 -20.333 -58 -61 -84l-316 -199h-84l301 303c32.667 33.333 62.667 50 90 50c46.667 0 70 -23.333 70 -70zM870 1749c0 -30 -17 -58 -51 -84l-278 -217h-82l264 321c28.667 34.667 54.667 52 78 52c46 0 69 -24 69 -72zM1403 678
c0 -203.333 -61.5 -372 -184.5 -506s-285.5 -201 -487.5 -201c-200.667 0 -363 68.333 -487 205c-122 132.667 -183 300 -183 502c0 204.667 61.167 373.5 183.5 506.5s284.5 199.5 486.5 199.5s364.5 -66.833 487.5 -200.5s184.5 -302.167 184.5 -505.5zM1169 678
c0 170.667 -30 311.333 -90 422c-74.667 140.667 -190.667 211 -348 211c-156.667 0 -272.667 -70.333 -348 -211c-60 -110.667 -90 -251.334 -90 -422.001c0 -169.333 30 -310 90 -422c76.667 -140.667 192.667 -211 348 -211c157.333 0 274 70.333 350 211
c58.667 110.667 88 251.334 88 422.001z" />
    <glyph glyph-name="ODoubleAcute" unicode="&#x151;" horiz-adv-x="1024" 
d="M920 1321c0 -30 -20.667 -58 -62 -84l-315 -199h-82l301 303c32.667 33.333 62.667 50 90 50c45.333 0 68 -23.333 68 -70zM596 1321c0 -28.667 -17.667 -56.667 -53 -84l-279 -217h-82l264 321c28.667 34.667 54.667 52 78 52c48 0 72 -24 72 -72zM963 463
c0 -136.667 -41 -252 -123 -346c-86 -98.667 -196 -148 -330 -148c-135.333 0 -245.666 48.5 -330.999 145.5s-128 213.833 -128 350.5c0 135.333 42 248 126 338s193 135 327 135c139.333 0 250.666 -44.333 333.999 -133s125 -202.667 125 -342zM776 399
c0 113.333 -22.334 216 -67.001 308c-56 114.667 -134 172 -234 172c-156.667 0 -235 -122.333 -235 -367c0 -113.333 22.333 -216.333 67 -309c57.333 -117.333 136 -176 236 -176c84.667 0 147.334 43.667 188.001 131c30 64 45 144.333 45 241z" />
    <glyph glyph-name="CapitalSHacek" unicode="&#x160;" horiz-adv-x="1139" 
d="M909 1821l-256 -342h-127l-256 342h72l248 -211l250 211h69zM1006 350c0 -114.667 -44.6641 -207.333 -133.997 -278c-81.333 -66 -181 -99 -299 -99c-47.333 0 -109.333 12 -186 36s-120.334 36 -131.001 36c-36.667 0 -58.667 -23.333 -66 -70h-45l-59 437h45
c91.333 -242 233.333 -363 426 -363c71.333 0 129.5 21.5 174.5 64.5s67.5 100.167 67.5 171.5c0 95.333 -56.667 180 -170 254l-320 196c-113.333 84.667 -170 181 -170 289c0 109.333 35.5 196.666 106.5 261.999s161.167 98 270.5 98
c35.333 0 85.166 -11.5 149.499 -34.5s108.166 -34.5 131.499 -34.5c39.333 0 64.333 23 75 69h41l45 -436h-49c-26 104 -68.333 186.667 -127 248c-68 69.333 -152 104 -252 104c-58.667 0 -108 -16.667 -148 -50s-60 -78.666 -60 -135.999c0 -86 59.333 -167.333 178 -244
l327 -206c119.333 -92 179 -196.667 179 -314z" />
    <glyph glyph-name="SHacek" unicode="&#x161;" horiz-adv-x="797" 
d="M702 1378l-256 -340h-127l-256 340h70l250 -211l250 211h69zM713 250c0 -84.667 -32.9971 -151.668 -98.9971 -201.001c-60 -44.667 -133.667 -67 -221 -67c-26 0 -63.833 6.33301 -113.5 19s-86.834 19 -111.501 19c-16.667 0 -29 -9.33301 -37 -28h-25v323h33
c40 -190.667 129 -286 267 -286c47.333 0 86 12.833 116 38.5s45 61.834 45 108.501c0 58.667 -40.333 112.667 -121 162l-221 135c-80.667 60 -121 131.667 -121 215c0 78 28 141 84 189c52 44.667 117.667 67 197 67c23.333 0 57.166 -6.5 101.499 -19.5
s73.166 -19.5 86.499 -19.5c19.333 0 32.333 7 39 21h25l6 -279h-31c-34 166.667 -111 250 -231 250c-42.667 0 -78.667 -13.333 -108 -40s-44 -61 -44 -103c0 -56 41.667 -108.667 125 -158l234 -133c83.333 -61.333 125 -132.333 125 -213z" />
    <glyph glyph-name="CapitalUDoubleAcute" unicode="&#x170;" horiz-adv-x="1479" 
d="M1196 1749c0 -30 -20.333 -58 -61 -84l-316 -199h-84l301 303c32.667 33.333 62.667 50 90 50c46.667 0 70 -23.333 70 -70zM870 1749c0 -30 -17 -58 -51 -84l-278 -217h-82l264 321c28.667 34.667 54.667 52 78 52c46 0 69 -24 69 -72zM1444 1317
c-86 -11.333 -141.332 -36 -165.999 -74c-18 -28.667 -27 -91.334 -27 -188.001v-535c0 -184 -40.333 -320.333 -121 -409c-84 -93.333 -217.667 -140 -401 -140c-344 0 -516 174.333 -516 523v639c0 73.333 -11.667 121 -35 143s-73 35.667 -149 41v39h579v-39
c-76 -5.33301 -125 -18.333 -147 -39c-26 -23.333 -39 -71.666 -39 -144.999v-656c0 -134 24.667 -233.667 74 -299c57.333 -76.667 150.666 -115 279.999 -115c146 0 249 41.667 309 125c50.667 70 76 180.667 76 332v535c0 95.333 -8.66699 158 -26 188
c-24.667 41.333 -80 66 -166 74v39h475v-39z" />
    <glyph glyph-name="UDoubleAcute" unicode="&#x171;" horiz-adv-x="1024" 
d="M920 1321c0 -30 -20.667 -58 -62 -84l-315 -199h-82l301 303c32.667 33.333 62.667 50 90 50c45.333 0 68 -23.333 68 -70zM596 1321c0 -28.667 -17.667 -56.667 -53 -84l-279 -217h-82l264 321c28.667 34.667 54.667 52 78 52c48 0 72 -24 72 -72zM981 78
c-106.667 -30 -201.001 -60.666 -283.001 -91.999l-6 4c-4 20 -5.33301 48.667 -4 86l4 86c-102 -120 -203.667 -180 -305 -180c-76.667 0 -136.667 25.667 -180 77c-41.333 48 -62 111 -62 189v520c0 48 -8.5 80.167 -25.5 96.5s-50.833 27.166 -101.5 32.499v29h299v-639
c0 -124.667 51.333 -187 154 -187c72.667 0 142.334 38.333 209.001 115v549c0 52 -12.333 86.667 -37 104c-18 12.667 -55.667 21 -113 25v33h324v-705c0 -47.333 9.16699 -79 27.5 -95s51.5 -22.667 99.5 -20v-28z" />
    <glyph glyph-name="Hacek" unicode="&#xf031;" horiz-adv-x="639" 
d="M639 406l-256 -343h-127l-256 343h70l249 -211l248 211h72z" />
    <glyph glyph-name="Hacek" unicode="&#x2c7;" horiz-adv-x="639" 
d="M639 406l-256 -343h-127l-256 343h70l249 -211l248 211h72z" />
    <glyph glyph-name="Breve" unicode="&#xf02e;" horiz-adv-x="578" 
d="M578 385c0 -90 -24 -166.167 -72 -228.5s-120.333 -93.5 -217 -93.5c-96 0 -168.167 30.833 -216.5 92.5s-72.5 138.167 -72.5 229.5h61c11.333 -52 38.5 -98.167 81.5 -138.5s91.167 -60.5 144.5 -60.5c52 0 100.5 20.167 145.5 60.5s72.833 86.5 83.5 138.5h62z" />
    <glyph glyph-name="Breve" unicode="&#x2d8;" horiz-adv-x="578" 
d="M578 385c0 -90 -24 -166.167 -72 -228.5s-120.333 -93.5 -217 -93.5c-96 0 -168.167 30.833 -216.5 92.5s-72.5 138.167 -72.5 229.5h61c11.333 -52 38.5 -98.167 81.5 -138.5s91.167 -60.5 144.5 -60.5c52 0 100.5 20.167 145.5 60.5s72.833 86.5 83.5 138.5h62z" />
    <glyph glyph-name="CapitalAlpha" unicode="&#x391;" horiz-adv-x="1483" 
d="M1448 0h-512v35c56 0 93.833 5.5 113.5 16.5s29.5 29.167 29.5 54.5c0 15.333 -5.16699 38.5 -15.5 69.5s-21.5 61.167 -33.5 90.5l-72 174h-542l-18 -43.5l-38 -93.5c-13.333 -34 -25.833 -69.167 -37.5 -105.5s-17.5 -60.5 -17.5 -72.5c0 -34 14 -57.5 42 -70.5
s59.667 -19.5 95 -19.5v-35h-395v35c34 0 68 15.5 102 46.5s71 93.833 111 188.5l461 1114h35l499 -1146c37.333 -85.333 69 -140.5 95 -165.5s58.667 -37.5 98 -37.5v-35zM924 522l-238 580l-237 -580h475z" />
    <glyph glyph-name="CapitalBeta" unicode="&#x392;" horiz-adv-x="1309" 
d="M1229 356c0 -110.667 -49.168 -197.667 -147.501 -261s-226.166 -95 -383.499 -95h-639v35c78 0 130.333 11.5 157 34.5s40 53.167 40 90.5v1034c0 40.667 -15 72.334 -45 95.001s-80.667 34 -152 34v33h541c188 0 328.167 -28.333 420.5 -85
s138.5 -144.334 138.5 -263.001c0 -82 -29 -148.5 -87 -199.5s-118.333 -82.167 -181 -93.5l4 -8c101.333 -21.333 182.333 -61.5 243 -120.5s91 -135.833 91 -230.5zM957.999 999c0 96 -32.6699 168.166 -98.0029 216.499s-154.666 72.5 -267.999 72.5
c-61.333 0 -99.166 -3.66699 -113.499 -11s-21.5 -26 -21.5 -56v-471h168c98.667 0 178.834 20.833 240.501 62.5s92.5 103.834 92.5 186.501zM1008 364.999c0 105.333 -39.999 182.834 -119.999 232.501s-190.333 74.5 -331 74.5h-102v-499
c0 -44.667 15.833 -73.334 47.5 -86.001s73.167 -19 124.5 -19c127.333 0 222.666 26 285.999 78s95 125 95 219z" />
    <glyph glyph-name="CapitalGamma" unicode="&#x393;" horiz-adv-x="1212" 
d="M1143 1069l-41 -0.000976562c-10 62 -35.833 112.667 -77.5 152s-93.834 59 -156.501 59h-329c-26 0 -48 -6.83301 -66 -20.5s-27 -34.167 -27 -61.5v-1040c0 -49.333 19.833 -82.166 59.5 -98.499s80.834 -24.5 123.501 -24.5v-35h-561v35c42 0 82.167 7.5 120.5 22.5
s57.5 48.5 57.5 100.5v1036c0 50.667 -19.167 84.5 -57.5 101.5s-78.5 25.5 -120.5 25.5v35h1075v-287z" />
    <glyph glyph-name="CapitalDelta" unicode="&#x394;" horiz-adv-x="1303" 
d="M1241 0h-1212l573 1384h35zM946 176l-379 926l-379 -926h758z" />
    <glyph glyph-name="CapitalEpsilon" unicode="&#x395;" horiz-adv-x="1286" 
d="M1241 340l-89.999 -340h-1096v35c74 0 121.833 12.667 143.5 38s32.5 54.333 32.5 87v1034c0 43.333 -15.167 75.333 -45.5 96s-73.833 31 -130.5 31v35h1075v-287h-40c-12.667 68 -39.5 120.167 -80.5 156.5s-92.167 54.5 -153.5 54.5h-330
c-27.333 0 -49.5 -7.16699 -66.5 -21.5s-25.5 -34.5 -25.5 -60.5v-448h264c63.333 0 119.166 12.667 167.499 38s72.5 78 72.5 158h39v-475h-41c0 70.667 -21.667 121.834 -65 153.501s-102 47.5 -176 47.5h-263v-494c0 -34 6.83301 -59.5 20.5 -76.5
s30.167 -25.5 49.5 -25.5h276c138 0 234.167 24.667 288.5 74s95.5 112.666 123.5 189.999h51z" />
    <glyph glyph-name="CapitalZeta" unicode="&#x396;" horiz-adv-x="1300" 
d="M1245 360l-49.002 -360h-1159v25l899 1253h-452c-116 0 -198.667 -20.833 -248 -62.5s-81.666 -111.5 -96.999 -209.5h-53l41 350h1081v-25l-880 -1235h501c116.667 0 199.834 15 249.501 45s89.5 103 119.5 219h47z" />
    <glyph glyph-name="CapitalEta" unicode="&#x397;" horiz-adv-x="1495" 
d="M1446 0h-560.999v33c61.333 0 106.666 11 135.999 33s44 52.667 44 92v499h-625v-499c0 -49.333 20.5 -82.5 61.5 -99.5s80.833 -25.5 119.5 -25.5v-33h-562v33c45.333 0 86.5 7.5 123.5 22.5s55.5 49.167 55.5 102.5v1042c0 39.333 -16.667 69.333 -50 90
s-76.333 31 -129 31v35h562v-35c-64 0 -110.5 -11.667 -139.5 -35s-43.5 -53.333 -43.5 -90v-459h629v459c0 38 -14.5 68.333 -43.5 91s-75.167 34 -138.5 34v35h561v-35c-38 0 -77.167 -8.5 -117.5 -25.5s-60.5 -48.833 -60.5 -95.5v-1042c0 -49.333 18.667 -82.5 56 -99.5
s78 -25.5 122 -25.5v-33z" />
    <glyph glyph-name="CapitalTheta" unicode="&#x398;" horiz-adv-x="1407" 
d="M1370 674c0 -199.333 -62.167 -366 -186.5 -500s-285.5 -201 -483.5 -201c-193.333 0 -352.5 68 -477.5 204s-187.5 304.333 -187.5 505s61 368.167 183 502.5s287 201.5 495 201.5c188 0 344.5 -66 469.5 -198s187.5 -303.333 187.5 -514zM1149 686
c0 172 -37.332 321.167 -111.999 447.5s-183.334 189.5 -326.001 189.5c-143.333 0 -255 -57.5 -335 -172.5s-120 -264.5 -120 -448.5c0 -180 35.667 -335.833 107 -467.5s175 -197.5 311 -197.5c153.333 0 270.833 62.5 352.5 187.5s122.5 278.833 122.5 461.5z
M950.001 434h-32.999c0 42.667 -9.83301 78.667 -29.5 108s-52.834 44 -99.501 44h-172c-44.667 0 -77 -14.667 -97 -44s-30 -65.333 -30 -108h-32v502h32c0 -44 10 -80.667 30 -110s54 -44 102 -44h172c44.667 0 76.5 15 95.5 45s28.5 66.333 28.5 109h33v-502z" />
    <glyph glyph-name="CapitalIota" unicode="&#x399;" horiz-adv-x="719" 
d="M662 0h-602.999v35c67.333 0 117.666 10.833 150.999 32.5s50 52.5 50 92.5v1038c0 34 -13.833 63 -41.5 87s-80.834 36 -159.501 36v35h603v-35c-66 0 -116 -10 -150 -30s-51 -51 -51 -93v-1038c0 -37.333 15.333 -67.5 46 -90.5s82.334 -34.5 155.001 -34.5v-35z" />
    <glyph glyph-name="CapitalKappa" unicode="&#x39a;" horiz-adv-x="1503" 
d="M1450 0h-615.998v33c55.333 0 93.333 4.66699 114 14s31 22.333 31 39c0 23.333 -29.5 71 -88.5 143s-121.833 141.667 -188.5 209l-210 211l-64 -55v-442c0 -36 16.333 -64.833 49 -86.5s79 -32.5 139 -32.5v-33h-569v33c63.333 0 109.166 10.5 137.499 31.5
s42.5 52.167 42.5 93.5v1042c0 30 -10.833 58 -32.5 84s-70.834 39 -147.501 39v33h569v-33c-61.333 0 -108 -11.167 -140 -33.5s-48 -52.833 -48 -91.5v-500l367 337c58.667 54 101 100.333 127 139s39 63.667 39 75c0 23.333 -9.5 41.5 -28.5 54.5
s-54.167 19.5 -105.5 19.5h-8v33h529v-33c-64.667 0 -120.5 -15.167 -167.5 -45.5s-100.5 -74.5 -160.5 -132.5l-379 -363l375 -402.5l144 -159.5c80.667 -86.667 140.167 -139.5 178.5 -158.5s75.5 -28.5 111.5 -28.5v-33z" />
    <glyph glyph-name="CapitalLambda" unicode="&#x39b;" horiz-adv-x="1466" 
d="M1434 0l-511.999 -0.000976562v35c56 0 94.5 7.33301 115.5 22s31.5 34.667 31.5 60c0 9.33301 -2.16699 21.333 -6.5 36s-19.166 52.334 -44.499 113.001l-346 836l-329 -797c-14 -33.333 -26.167 -67.5 -36.5 -102.5s-15.5 -60.833 -15.5 -77.5
c0 -34 13.667 -57.5 41 -70.5s58.666 -19.5 93.999 -19.5v-35h-393v35c35.333 0 71.166 18.833 107.499 56.5s71.5 97.167 105.5 178.5l461 1114h35l499 -1146c37.333 -85.333 67.5 -140.5 90.5 -165.5s57.167 -37.5 102.5 -37.5v-35z" />
    <glyph glyph-name="CapitalMu" unicode="&#x39c;" horiz-adv-x="1808" 
d="M1774 0l-561.999 0.000976562v33c44 0 84.833 8.16699 122.5 24.5s56.5 50.5 56.5 102.5v1005l-9 4l-522 -1169h-22l-516 1122h-9v-960c0 -40.667 17.667 -72.334 53 -95.001s85.333 -34 150 -34v-33h-479v33c66 0 115.167 10 147.5 30s48.5 51.667 48.5 95v1020
c0 55.333 -16.5 93.333 -49.5 114s-81.167 31 -144.5 31v33h399l477 -1047l455 1047h399v-33c-42 0 -82.167 -7.83301 -120.5 -23.5s-57.5 -49.5 -57.5 -101.5v-1040c0 -43.333 18.667 -75 56 -95s79.666 -30 126.999 -30v-33z" />
    <glyph glyph-name="CapitalNu" unicode="&#x39d;" horiz-adv-x="1489" 
d="M1452 1325c-70.667 0 -121.498 -11.667 -152.498 -35s-46.5 -54 -46.5 -92v-1225h-26l-914 1145v-956c0 -40 17.333 -71.167 52 -93.5s83.667 -33.5 147 -33.5v-35h-477v35c64 0 113 9.83301 147 29.5s51 52.167 51 97.5v1048
c-32.667 37.333 -60.834 65.833 -84.501 85.5s-61.5 29.5 -113.5 29.5v33h342l796 -998v834c0 45.333 -18.333 78.5 -55 99.5s-84.334 31.5 -143.001 31.5v33h477v-33z" />
    <glyph glyph-name="CapitalXi" unicode="&#x39e;" horiz-adv-x="1260" 
d="M1196 952h-44.9971c-9.33301 56 -20.833 100.833 -34.5 134.5s-30.834 58.5 -51.501 74.5c-20 15.333 -42.833 25.333 -68.5 30s-52.834 7 -81.501 7h-571c-32.667 0 -60.334 -1.66699 -83.001 -5s-44.667 -14 -66 -32c-18.667 -16 -35.667 -41.5 -51 -76.5
s-28 -79.167 -38 -132.5h-43l13 404h1112zM1030 463h-35c0 44.667 -9.5 79.334 -28.5 104.001s-52.5 37 -100.5 37h-454c-48 0 -81.167 -12.333 -99.5 -37s-27.5 -59.334 -27.5 -104.001h-33v454h35c0 -44.667 9.5 -79.667 28.5 -105s52.5 -38 100.5 -38h454
c48 0 81.167 13 99.5 39s27.5 60.667 27.5 104h33v-454zM1198 414l-10 -414h-1112l-10 414h45c15.333 -98 38.333 -162.167 69 -192.5s76.667 -45.5 138 -45.5h638c64.667 0 110.5 18.833 137.5 56.5s47.5 98.167 61.5 181.5h43z" />
    <glyph glyph-name="CapitalOmicron" unicode="&#x39f;" horiz-adv-x="1407" 
d="M1370 674c0 -199.333 -62.166 -366 -186.499 -500s-285.5 -201 -483.5 -201c-193.333 0 -352.5 68 -477.5 204s-187.5 304.333 -187.5 505s61 368.167 183 502.5s287 201.5 495 201.5c188 0 344.167 -65.667 468.5 -197s187.166 -303 188.499 -515zM1149 686
c0 172 -37.332 321.167 -111.999 447.5s-183.334 189.5 -326.001 189.5c-143.333 0 -255 -57.5 -335 -172.5s-120 -264.5 -120 -448.5c0 -180 35.667 -335.833 107 -467.5s175 -197.5 311 -197.5c153.333 0 270.833 62.5 352.5 187.5s122.5 278.833 122.5 461.5z" />
    <glyph glyph-name="CapitalPi" unicode="&#x3a0;" horiz-adv-x="1489" 
d="M1440 0h-560.996v35c43.333 0 84.166 7.83301 122.499 23.5s57.5 49.5 57.5 101.5v1034c0 27.333 -10.333 48.5 -31 63.5s-44 22.5 -70 22.5h-434c-24.667 0 -46.834 -6.83301 -66.501 -20.5s-29.5 -34.167 -29.5 -61.5v-1038c0 -42.667 16.667 -74.167 50 -94.5
s77.333 -30.5 132 -30.5v-35h-561v35c42.667 0 83 7.5 121 22.5s57 48.5 57 100.5v1044c0 37.333 -14.833 66.5 -44.5 87.5s-74.167 31.5 -133.5 31.5v35h1391v-35c-58.667 0 -103.334 -10 -134.001 -30s-46 -51 -46 -93v-1044c0 -38.667 16.667 -68.167 50 -88.5
s76.666 -30.5 129.999 -30.5v-35z" />
    <glyph glyph-name="CapitalRho" unicode="&#x3a1;" horiz-adv-x="1155" 
d="M1122 993c0 -128 -48.999 -226.168 -146.999 -294.501s-222.333 -102.5 -373 -102.5c-32.667 0 -70.5 1.66699 -113.5 5l-64.5 5v-454c0 -42.667 16.667 -73.167 50 -91.5s76.666 -27.5 129.999 -27.5v-33h-561v33c44 0 84.667 7.5 122 22.5s56 49.167 56 102.5v1018
c0 54 -14.667 92 -44 114s-71.333 33 -126 33v33h512c174 0 310.667 -32.167 410 -96.5s149 -153.166 149 -266.499zM907.001 974.999c0 104.667 -34.001 182.999 -102.001 234.999s-165.667 78 -293 78c-45.333 0 -71.666 -5.16699 -78.999 -15.5s-11 -37.166 -11 -80.499
v-514l40 -5c26.667 -3.33301 48.667 -5 66 -5c115.333 0 207.333 24 276 72s103 126.333 103 235z" />
    <glyph glyph-name="CapitalSigma" unicode="&#x3a3;" horiz-adv-x="1171" 
d="M1112 436l-17.998 -436.001h-1063l536 674l-477 682h961l10 -342h-45c-10 60 -23.167 108.333 -39.5 145s-37.5 64.667 -63.5 84c-22.667 16.667 -50.167 26.334 -82.5 29.001s-65.5 4 -99.5 4h-399l379 -567l-418 -533h502c30 0 62.167 2.33301 96.5 7
s60.833 14 79.5 28c23.333 18 43.166 43 59.499 75s29.166 82 38.499 150h43z" />
    <glyph glyph-name="CapitalTau" unicode="&#x3a4;" horiz-adv-x="1237" 
d="M1206 1014l-43.9961 0.000976562c-16.667 95.333 -42.334 162.833 -77.001 202.5s-91.334 59.5 -170.001 59.5h-196v-1114c0 -50.667 20.167 -84.834 60.5 -102.501s81.5 -26.5 123.5 -26.5v-33h-569v33c62 0 108.167 10.667 138.5 32s45.5 53 45.5 95v1116h-197
c-78.667 0 -135.334 -19.833 -170.001 -59.5s-60.334 -107.167 -77.001 -202.5h-43l14 342h1151z" />
    <glyph glyph-name="CapitalUpsilon" unicode="&#x3a5;" horiz-adv-x="1401" 
d="M1380 1241l-20.001 -16.001c-10.667 13.333 -27.834 25.833 -51.501 37.5s-53.5 17.5 -89.5 17.5c-64.667 0 -125.667 -33.5 -183 -100.5s-107.666 -144.167 -150.999 -231.5c-40.667 -82 -73.334 -164.167 -98.001 -246.5s-37 -133.833 -37 -154.5v-385
c0 -49.333 11.167 -83.5 33.5 -102.5s79.833 -28.5 172.5 -28.5v-31h-614v31c71.333 0 123.666 10.667 156.999 32s50 53 50 95v446c-42.667 154.667 -100.667 301.5 -174 440.5s-142.333 208.5 -207 208.5c-27.333 0 -50.666 -6.5 -69.999 -19.5
s-31.666 -26.833 -36.999 -41.5l-32 18c12.667 47.333 33 84.833 61 112.5s65.667 41.5 113 41.5c106.667 0 203.5 -71.167 290.5 -213.5s152.167 -304.5 195.5 -486.5c56 209.333 132.333 380.333 229 513s200.334 199 311.001 199c21.333 0 45.5 -13.667 72.5 -41
s53.167 -58.666 78.5 -93.999z" />
    <glyph glyph-name="CapitalPhi" unicode="&#x3a6;" horiz-adv-x="1305" 
d="M1272 674c0 -136 -56.832 -243.168 -170.499 -321.501s-229.5 -122.166 -347.5 -131.499v-63c0 -36 15 -65.5 45 -88.5s81.667 -34.5 155 -34.5v-35h-602v35c59.333 0 107.666 10 144.999 30s55.666 51 54.999 93l-1 63c-117.333 9.33301 -233 54 -347 134
s-171 186.333 -171 319c0 125.333 45.333 228.5 136 309.5s218.667 132.167 384 153.5v61c0 34.667 -14.667 64 -44 88s-81.666 36 -156.999 36v34h601v-34c-76 0 -128.167 -12.167 -156.5 -36.5s-42.5 -53.5 -42.5 -87.5v-61c133.333 -12.667 253 -58 359 -136
s159 -187 159 -327zM1067 667.999c0 127.333 -31.167 226.833 -93.5 298.5s-135.5 113.167 -219.5 124.5v-823c67.333 10.667 136.333 48.5 207 113.5s106 160.5 106 286.5zM551.001 267.999v823c-108.667 -14 -188 -63.833 -238 -149.5s-75 -176.834 -75 -273.501
c0 -109.333 35 -201.166 105 -275.499s139.333 -115.833 208 -124.5z" />
    <glyph glyph-name="CapitalChi" unicode="&#x3a7;" horiz-adv-x="1485" 
d="M1448 0h-595.996v35c31.333 0 64.833 3.33301 100.5 10s53.5 25 53.5 55c0 13.333 -16.333 49.666 -49 108.999s-66.334 114 -101.001 164l-154 223l-311 -391c-11.333 -14 -21 -30.167 -29 -48.5s-12 -32.833 -12 -43.5c0 -23.333 12 -42.166 36 -56.499
s63.333 -21.5 118 -21.5v-35h-467v35c58.667 0 117 32.667 175 98s102 117.333 132 156l309 379l-209 311c-80 121.333 -147.333 208.333 -202 261s-116.334 79 -185.001 79v37h609v-37h-15c-35.333 0 -67.333 -2.33301 -96 -7s-43 -20.667 -43 -48
c0 -18 14.5 -52 43.5 -102s58.833 -97.333 89.5 -142l133 -195l215 265l63.5 78c23.667 29.333 35.5 58.333 35.5 87s-18.5 46.5 -55.5 53.5s-65.167 10.5 -84.5 10.5v37h473v-37c-64 -4 -120.667 -25.333 -170 -64s-98.333 -88.334 -147 -149.001l-281 -350l379 -547
c45.333 -65.333 85.666 -110.666 120.999 -135.999s75.666 -38 120.999 -38v-35z" />
    <glyph glyph-name="CapitalPsi" unicode="&#x3a8;" horiz-adv-x="1262" 
d="M1249 1239c-27.333 -4 -47.5 -18.6719 -60.5 -44.0049s-21.5 -53.666 -25.5 -84.999c-4 -28.667 -6.33301 -67.834 -7 -117.501s-3.66699 -93.167 -9 -130.5c-4 -40.667 -13.167 -83.5 -27.5 -128.5s-35.833 -81.833 -64.5 -110.5c-36 -36 -86.167 -63.167 -150.5 -81.5
s-121.5 -27.5 -171.5 -27.5v-352c0 -53.333 22.5 -88.166 67.5 -104.499s89.5 -24.5 133.5 -24.5v-33h-602v33c42 0 85.833 8.16699 131.5 24.5s68.5 50.5 68.5 102.5v352c-64 6.66699 -126.333 17.834 -187 33.501s-106 40.167 -136 73.5
c-32.667 34 -55.5 71.167 -68.5 111.5s-22.5 83.5 -28.5 129.5c-4.66699 38 -8.5 82.167 -11.5 132.5s-4.5 87.5 -4.5 111.5c0 34.667 -8 64.667 -24 90s-36.667 40.333 -62 45v25c86 0 152.167 -29.833 198.5 -89.5s69.5 -154.167 69.5 -283.5
c0 -78 18.833 -146.667 56.5 -206s103.5 -93.666 197.5 -102.999v612c0 36.667 -15.5 67.334 -46.5 92.001s-82.5 37 -154.5 37v33h602v-33c-44 0 -88.333 -8.33301 -133 -25s-67 -50 -67 -100v-614c83.333 0 145.5 31.333 186.5 94s61.5 134.334 61.5 215.001
c0 123.333 22 216 66 278s111.333 93 202 93v-25z" />
    <glyph glyph-name="CapitalOmega" unicode="&#x3a9;" horiz-adv-x="1532" 
d="M1481 342l-21.002 -341.999h-534c50 78 101.667 191.333 155 340s80 310.334 80 485.001c0 139.333 -32.667 257.833 -98 355.5s-157.666 146.5 -276.999 146.5c-112 0 -203 -49.5 -273 -148.5s-105 -216.833 -105 -353.5c0 -174.667 28.167 -339 84.5 -493
s106.5 -264.667 150.5 -332h-565l-21 342h45c6 -59.333 26.167 -101.833 60.5 -127.5s97.5 -38.5 189.5 -38.5h133c-68.667 73.333 -135.667 167.666 -201 282.999s-98 230 -98 344c0 158 57.833 294.333 173.5 409s256.5 172 422.5 172c180.667 0 325.834 -56 435.501 -168
s164.5 -249.667 164.5 -413c0 -100.667 -26.167 -203.834 -78.5 -309.501s-125.833 -211.5 -220.5 -317.5h127c86.667 0 143.167 12.5 169.5 37.5s44.5 67.833 54.5 128.5h47z" />
    <glyph glyph-name="Alpha" unicode="&#x3b1;" horiz-adv-x="1214" 
d="M1196 883c-38.667 -64 -99.6641 -159.501 -182.997 -286.501l-200 -305.5c-4 -10 -7.66699 -25.833 -11 -47.5s-5 -44.834 -5 -69.501c0 -28.667 3.66699 -53.834 11 -75.501s22.666 -32.5 45.999 -32.5c28.667 0 54.667 9.16699 78 27.5s41 37.833 53 58.5l36 58.5
c12.667 19.667 22 29.5 28 29.5c1.33301 0 2.66602 -1.16699 3.99902 -3.5s2 -4.83301 2 -7.5c0 -30.667 -23.667 -78.167 -71 -142.5s-110.333 -96.5 -189 -96.5c-51.333 0 -89.833 12.167 -115.5 36.5s-38.5 54.5 -38.5 90.5h-2
c-16.667 -20.667 -52.334 -47.667 -107.001 -81s-114 -50 -178 -50c-104.667 0 -181.667 32.333 -231 97s-74 141.334 -74 230.001c0 152 55.833 295.5 167.5 430.5s240.834 202.5 387.501 202.5c92.667 0 160.167 -26.833 202.5 -80.5s63.5 -125.167 63.5 -214.5
c0 -44.667 -3.66699 -84.167 -11 -118.5s-15.333 -65.166 -24 -92.499c31.333 46 72.666 116.333 123.999 211s83.333 164.334 96 209.001zM721.003 634.999c0 80.667 -12.667 143.833 -38 189.5s-63.333 68.5 -114 68.5c-111.333 0 -195.833 -65.833 -253.5 -197.5
s-86.5 -254.834 -86.5 -369.501c0 -90 13 -160.333 39 -211s65 -76 117 -76c54.667 0 105.5 17.333 152.5 52s82.833 71.334 107.5 110.001c19.333 56.667 36.833 126.5 52.5 209.5s23.5 157.833 23.5 224.5z" />
    <glyph glyph-name="Beta" unicode="&#x3b2;" horiz-adv-x="1040" 
d="M1034 1147c0 -94 -30 -175.333 -90 -244s-137 -116.334 -231 -143.001v-8c71.333 -21.333 128 -55.333 170 -102s63 -114.667 63 -204c0 -130 -48.833 -243 -146.5 -339s-220.167 -144 -367.5 -144c-52.667 0 -105.167 12.667 -157.5 38s-91.166 64 -116.499 116h-2
l-99 -358.5c-30 -105.667 -54.333 -164.5 -73 -176.5h-183c16.667 18.667 39.167 56 67.5 112s50.166 112.333 65.499 169l314 1163c28 104 88.167 191.167 180.5 261.5s193.833 105.5 304.5 105.5c84.667 0 156 -20.167 214 -60.5s87 -102.166 87 -185.499zM872 1151
c0 50.667 -11.8301 93.6699 -35.4971 129.003s-64.834 53 -123.501 53c-74.667 0 -139.834 -28.333 -195.501 -85s-95.834 -131.334 -120.501 -224.001l-184 -682c-3.33301 -12.667 -6.16602 -26.834 -8.49902 -42.501s-3.5 -28.834 -3.5 -39.501
c0 -61.333 20.5 -109.833 61.5 -145.5s96.833 -53.5 167.5 -53.5c108 0 192 42 252 126s90 178 90 282c0 58.667 -12 112.167 -36 160.5s-61 72.5 -111 72.5c-23.333 0 -41.833 -1.66699 -55.5 -5s-34.834 -5 -63.501 -5c-18 0 -31.333 4.16699 -40 12.5s-13 18.5 -13 30.5
c0 19.333 8.83301 38.833 26.5 58.5s40.167 29.5 67.5 29.5c12 0 29 -1.66699 51 -5s41 -5 57 -5c70 0 123.667 39 161 117s56 151.667 56 221z" />
    <glyph glyph-name="Gamma" unicode="&#x3b3;" horiz-adv-x="1061" 
d="M1087 905c-40.667 -109.333 -97.166 -219.829 -169.499 -331.496s-137.166 -207.167 -194.499 -286.5l-91 -124.5c-34.667 -47 -60.334 -86.167 -77.001 -117.5c-12.667 -24 -25.834 -65.5 -39.501 -124.5s-28.5 -109.5 -44.5 -151.5
c-28 -70.667 -52.833 -119.834 -74.5 -147.501s-54.167 -41.5 -97.5 -41.5c-20.667 0 -35 4.16699 -43 12.5s-12 21.166 -12 38.499c0 49.333 30 119.666 90 210.999s108.333 158.333 145 201c0 24.667 0.333008 50 1 76s1 51.333 1 76c0 194.667 -19.667 338.167 -59 430.5
s-94 138.5 -164 138.5c-49.333 0 -87.333 -8.83301 -114 -26.5s-48 -38.167 -64 -61.5c-15.333 -22 -27 -42.167 -35 -60.5s-17.667 -27.5 -29 -27.5c-4 0 -6.66699 2 -8 6s-2 7.33301 -2 10c0 58.667 35.833 124.167 107.5 196.5s140.167 108.5 205.5 108.5
c96 0 165.5 -46.5 208.5 -139.5s64.5 -236.167 64.5 -429.5c0 -16.667 -0.333008 -33.334 -1 -50.001s-1 -32.667 -1 -48c70.667 98 134.667 200.667 192 308s109.333 217 156 329z" />
    <glyph glyph-name="Delta" unicode="&#x3b4;" horiz-adv-x="952" 
d="M946 1276c0 -20.667 -6.1709 -37.167 -18.5039 -49.5s-30.166 -18.5 -53.499 -18.5c-20 0 -34.5 6.5 -43.5 19.5s-20.167 27.167 -33.5 42.5c-11.333 13.333 -28 26.833 -50 40.5s-58 20.5 -108 20.5c-45.333 0 -85.666 -13.167 -120.999 -39.5s-53 -58.833 -53 -97.5
c0 -52 20.5 -97.333 61.5 -136l124.5 -112c73.333 -62 122.833 -120.167 148.5 -174.5s38.5 -114.833 38.5 -181.5c0 -172 -51 -318.833 -153 -440.5s-225.333 -182.5 -370 -182.5c-84 0 -151.333 32 -202 96s-76 146.667 -76 248c0 154 50 281 150 381
s213.667 161.667 341 185c-25.333 29.333 -55.166 71.5 -89.499 126.5s-51.5 110.833 -51.5 167.5c0 64.667 29.333 118.5 88 161.5s128.334 64.5 209.001 64.5c83.333 0 147.833 -12 193.5 -36s68.5 -52.333 68.5 -85zM673.996 520c0 60.667 -11.166 118.667 -33.499 174
s-46.833 101 -73.5 137c-104.667 -17.333 -190.5 -71.333 -257.5 -162s-100.5 -212.667 -100.5 -366c0 -84 15 -151.667 45 -203s67 -77 111 -77c77.333 0 148.166 51.167 212.499 153.5s96.5 216.833 96.5 343.5z" />
    <glyph glyph-name="CurlyEpsilon" unicode="&#x3b5;" horiz-adv-x="985" 
d="M979 762c0 -54.667 -29.335 -82.002 -88.002 -82.002c-33.333 0 -63 17.333 -89 52l-70 97c-34 34.667 -77.333 52 -130 52c-60.667 0 -112.334 -25.333 -155.001 -76c-41.333 -48 -62 -102.667 -62 -164c0 -70.667 36.333 -106 109 -106c14.667 0 37.167 1.33301 67.5 4
s53.5 4 69.5 4c47.333 0 71 -18.667 71 -56c0 -47.333 -30 -71 -90 -71c-19.333 0 -48.166 4 -86.499 12s-67.5 12 -87.5 12c-60 0 -109 -26 -147 -78c-34 -46.667 -51 -101 -51 -163c0 -106.667 63.333 -160 190 -160c80.667 0 149.334 23 206.001 69
c26.667 22 63 64.667 109 128c33.333 46 62 69 86 69c33.333 0 50 -17.667 50 -53c0 -27.333 -13.667 -58.666 -41 -93.999c-91.333 -117.333 -235.333 -176 -432 -176c-248.667 0 -373 77.667 -373 233c0 76.667 38.333 141.334 115 194.001
c62.667 42.667 136.334 70.334 221.001 83.001v8c-48 7.33301 -87.333 25.333 -118 54c-33.333 31.333 -50 70.666 -50 117.999c0 88.667 47.333 157.667 142 207c76.667 39.333 163.667 59 261 59c80 0 155.667 -11.667 227 -35c97.333 -32 146 -79 146 -141z" />
    <glyph glyph-name="Zeta" unicode="&#x3b6;" horiz-adv-x="862" 
d="M987 1264c0 -18 -18.3301 -45.8301 -54.9971 -83.4971s-80.334 -64.5 -131.001 -80.5l-110.5 -36c-33.667 -11.333 -69.167 -44.333 -106.5 -99c-56.667 -81.333 -127.834 -195.333 -213.501 -342s-128.5 -267.667 -128.5 -363c0 -52.667 18.333 -89.667 55 -111
s83 -32 139 -32c81.333 0 144.333 -15.833 189 -47.5s67 -76.834 67 -135.501c0 -108.667 -41.667 -195.834 -125 -261.501s-181 -98.5 -293 -98.5c-32.667 0 -57.5 6.83301 -74.5 20.5s-25.5 26.5 -25.5 38.5c0 26 13 46.833 39 62.5s44.333 25.834 55 30.501
c0 -27.333 7.5 -50.333 22.5 -69s36.167 -28 63.5 -28c68 0 128 23.833 180 71.5s78 100.5 78 158.5c0 47.333 -23.5 77.833 -70.5 91.5s-126.5 20.5 -238.5 20.5c-96 0 -164.333 15.667 -205 47s-61 75.333 -61 132c0 103.333 61.833 249.333 185.5 438
s246.167 347.667 367.5 477l-8.5 -1c-5.66699 -0.666992 -12.5 -1 -20.5 -1c-43.333 0 -79.333 9.5 -108 28.5s-43 47.833 -43 86.5c0 42 18.833 80.667 56.5 116s75.5 60.666 113.5 75.999h51c-18 -8 -45 -27.333 -81 -58s-54 -67.334 -54 -110.001
c0 -13.333 3 -30.333 9 -51s28.667 -31 68 -31c33.333 0 64.166 12.667 92.499 38s51.5 47 69.5 65c26 26 55 49.5 87 70.5s70.667 31.5 116 31.5c19.333 0 32.333 -5.16699 39 -15.5s10 -25.5 10 -45.5z" />
    <glyph glyph-name="Eta" unicode="&#x3b7;" horiz-adv-x="1014" 
d="M975 764c0 -20.667 -2.16895 -44.5 -6.50195 -71.5s-10.5 -54.5 -18.5 -82.5l-207 -764c-20 -73.333 -31.833 -141.166 -35.5 -203.499l-5.5 -93.5h-180c0 8 6.83301 49.5 20.5 124.5s26.167 133.167 37.5 174.5l202 754c6 22 11.333 44.167 16 66.5s7 43.166 7 62.499
c0 31.333 -8.16699 56.333 -24.5 75s-48.5 28 -96.5 28c-41.333 0 -91 -18.333 -149 -55s-99 -75 -123 -115l-123 -449c-18.667 -68 -31.167 -118.5 -37.5 -151.5s-10.833 -54.167 -13.5 -63.5h-193c8 10.667 19.333 32.5 34 65.5s30.667 82.833 48 149.5l86 328l37.5 145
c10.333 41.333 15.5 78.333 15.5 111c0 20 -3.66699 35.833 -11 47.5s-19.333 17.5 -36 17.5c-35.333 0 -60.5 -7.66699 -75.5 -23s-25.167 -28.666 -30.5 -39.999c-7.33301 -15.333 -13.666 -29.833 -18.999 -43.5s-14 -20.5 -26 -20.5
c-3.33301 0 -5.66602 1.83301 -6.99902 5.5s-2 8.16699 -2 13.5c0 39.333 19.5 80.166 58.5 122.499s86.5 63.5 142.5 63.5s97.667 -12 125 -36s41 -58.333 41 -103c0 -12.667 -0.666992 -21.5 -2 -26.5s-2 -11.167 -2 -18.5c57.333 48.667 121.5 90.5 192.5 125.5
s133.833 52.5 188.5 52.5c57.333 0 100.333 -14.333 129 -43s43 -71.667 43 -129z" />
    <glyph glyph-name="Theta" unicode="&#x3b8;" horiz-adv-x="899" 
d="M928 1022c0 -217.333 -54.5 -446.501 -163.5 -687.501s-253.167 -361.5 -432.5 -361.5c-89.333 0 -157.166 38.833 -203.499 116.5s-69.5 176.834 -69.5 297.501c0 242 63.667 469 191 681s270.666 318 429.999 318c75.333 0 135.5 -32.333 180.5 -97
s67.5 -153.667 67.5 -267zM793 1145c0 60 -8.99902 107.667 -26.999 143s-47.333 53 -88 53c-84 0 -159.833 -57.333 -227.5 -172s-124.834 -271 -171.501 -469h444c23.333 100 40.833 182.333 52.5 247s17.5 130.667 17.5 198zM702.001 624.999h-443.999
c-10.667 -46 -21.834 -107.333 -33.501 -184s-17.5 -137 -17.5 -181c0 -77.333 12.5 -137 37.5 -179s63.5 -63 115.5 -63c77.333 0 142.333 48.833 195 146.5s101.667 251.167 147 460.5z" />
    <glyph glyph-name="Iota" unicode="&#x3b9;" horiz-adv-x="582" 
d="M516 272c0 -44.667 -30.833 -102.835 -92.5 -174.502s-127.167 -107.5 -196.5 -107.5c-65.333 0 -112 14.333 -140 43s-42 67.667 -42 117c0 18.667 1.5 37.334 4.5 56.001s7.5 39.334 13.5 62.001l173 639l170 29l-187 -700c-2 -8.66699 -3.83301 -18 -5.5 -28
s-2.5 -18.667 -2.5 -26c0 -24.667 7.83301 -42.667 23.5 -54s39.834 -17 72.501 -17c27.333 0 53 8 77 24s44.667 36.667 62 62c18 26 31.833 46.833 41.5 62.5s17.167 23.5 22.5 23.5c1.33301 0 2.66602 -1.16699 3.99902 -3.5s2 -4.83301 2 -7.5z" />
    <glyph glyph-name="Kappa" unicode="&#x3ba;" horiz-adv-x="889" 
d="M915 877c0 -36 -15.335 -63.501 -46.002 -82.501s-59.667 -28.5 -87 -28.5c-25.333 0 -71.333 -41.667 -138 -125s-119.667 -137.333 -159 -162l199 -381c14 -27.333 28.167 -44 42.5 -50s39.833 -9 76.5 -9l-12 -39c-8.66699 -2.66699 -23.5 -6.66699 -44.5 -12
s-43.167 -8 -66.5 -8c-27.333 0 -56 6.5 -86 19.5s-54 35.833 -72 68.5l-182 333c-15.333 -6.66699 -25 -10.667 -29 -12l-6 -2l-104 -387h-187c6 12 16.333 34.333 31 67s27 67.667 37 105l192 719l170 29l-114 -437c64 19.333 121.833 54.333 173.5 105
s94.834 99.667 129.501 147c35.333 48 73.5 93.167 114.5 135.5s79.833 63.5 116.5 63.5c20.667 0 34.334 -6.16699 41.001 -18.5s10 -25.166 10 -38.499z" />
    <glyph glyph-name="Lambda" unicode="&#x3bb;" horiz-adv-x="1053" 
d="M1047 158c0 -18.667 -23.002 -53 -69.002 -103s-89.333 -75 -130 -75c-102 0 -176.833 58.833 -224.5 176.5s-71.5 255.5 -71.5 413.5c0 42 -0.333008 79.167 -1 111.5s-2 55.833 -4 70.5h-2c-71.333 -93.333 -141.833 -208.166 -211.5 -344.499
s-104.5 -250.166 -104.5 -341.499c0 -12.667 1.16699 -24.834 3.5 -36.501s4.16602 -21.5 5.49902 -29.5h-205c2.66699 40.667 28.5 99.834 77.5 177.501l176.5 275.5l173.5 274c46.333 75.333 69.5 141.666 69.5 198.999c0 20 -5 56.5 -15 109.5s-21.667 99.5 -35 139.5
c-17.333 52 -40 92.667 -68 122s-65.667 44 -113 44c-23.333 0 -43.166 -4 -59.499 -12s-26.5 -13.333 -30.5 -16l-23 22c11.333 12.667 32.5 25.5 63.5 38.5s63.167 19.5 96.5 19.5c126 0 218 -59.667 276 -179s87 -277 87 -473c0 -178.667 12.833 -331.834 38.5 -459.501
s79.5 -191.5 161.5 -191.5c34.667 0 63.334 12 86.001 36s38.334 36 47.001 36c1.33301 0 2.5 -0.666992 3.5 -2z" />
    <glyph glyph-name="Mu" unicode="&#x3bc;" horiz-adv-x="1096" 
d="M1014 164c0 -37.333 -17.499 -77.8311 -52.499 -121.498s-83.833 -65.5 -146.5 -65.5c-51.333 0 -91.833 12.333 -121.5 37s-44.5 61 -44.5 109c0 6.66699 0.666992 14.5 2 23.5s2 16.833 2 23.5c-15.333 -30 -49.833 -68.5 -103.5 -115.5s-114.5 -70.5 -182.5 -70.5
c-44.667 0 -79.334 8.66699 -104.001 26s-41.334 44.666 -50.001 81.999h-2l-131 -518h-180c24.667 60 50.667 131.667 78 215s48.333 153.666 63 210.999l223 895l152 27l-146 -582c-2.66699 -11.333 -4.66699 -22.833 -6 -34.5s-2 -22.834 -2 -33.501
c0 -44.667 11 -87.167 33 -127.5s61.667 -60.5 119 -60.5c36.667 0 78.5 16.833 125.5 50.5s89.167 77.5 126.5 131.5l163 629l179 31l-144 -580c-10.667 -42 -20.167 -83.167 -28.5 -123.5s-12.5 -72.833 -12.5 -97.5c0 -20.667 3.5 -37.167 10.5 -49.5
s17.833 -18.5 32.5 -18.5c27.333 0 49.333 6.83301 66 20.5s28.334 27.5 35.001 41.5l19 42.5c6 13.667 12.667 20.5 20 20.5c2.66699 0 4.66699 -1.66699 6 -5s2 -7.66602 2 -12.999z" />
    <glyph glyph-name="Nu" unicode="&#x3bd;" horiz-adv-x="942" 
d="M946 885c0 -30 -29 -90.832 -87 -182.499s-128.667 -192.834 -212 -303.501l-209 -273c-68 -86.667 -106 -134 -114 -142h-62c0 6 6.16699 52.667 18.5 140s18.5 167.666 18.5 240.999c0 116 -10.333 207.833 -31 275.5s-44.334 116.167 -71.001 145.5
c-28.667 32 -57.334 50.333 -86.001 55s-50 7 -64 7l8 33c30.667 0 69.334 4.16699 116.001 12.5s94 23.833 142 46.5c40 -46 70.833 -108.167 92.5 -186.5s32.5 -176.5 32.5 -294.5c0 -49.333 -4 -103.666 -12 -162.999l-12 -89l164 203c46 58 84 114.333 114 169
s45 115 45 181c0 88 12.833 143 38.5 165s57.834 33 96.501 33c24.667 0 43.167 -7.5 55.5 -22.5s18.5 -31.833 18.5 -50.5z" />
    <glyph glyph-name="Xi" unicode="&#x3be;" horiz-adv-x="895" 
d="M954 1260c0 -49.333 -14.832 -88.667 -44.499 -118s-80.167 -44 -151.5 -44c-19.333 0 -44 1.66699 -74 5s-58 7.66602 -84 12.999c-58.667 -27.333 -108.5 -69.666 -149.5 -126.999s-61.5 -112.666 -61.5 -165.999c0 -39.333 8.33301 -72.333 25 -99s52.667 -40 108 -40
c64.667 0 119 8.83301 163 26.5s77 26.5 99 26.5c23.333 0 37.833 -4.33301 43.5 -13s8.5 -23.334 8.5 -44.001c0 -34 -10.667 -59.167 -32 -75.5s-45 -24.5 -71 -24.5c-16 0 -38.667 4 -68 12s-72.666 12 -129.999 12c-89.333 0 -169.5 -31.667 -240.5 -95
s-106.5 -142.333 -106.5 -237c0 -56 18.5 -98.667 55.5 -128s93.167 -44 168.5 -44c77.333 0 137.5 -12.833 180.5 -38.5s64.5 -67.167 64.5 -124.5c0 -115.333 -41.167 -204.333 -123.5 -267s-184.5 -94 -306.5 -94c-18.667 0 -38 4.83301 -58 14.5s-30 24.5 -30 44.5
c0 22 13.667 41.5 41 58.5s46.666 28.5 57.999 34.5c0 -31.333 7 -55.333 21 -72s34 -25 60 -25c59.333 0 117.666 22.333 174.999 67s86 99.667 86 165c0 47.333 -23.833 77.166 -71.5 89.499s-117.5 18.5 -209.5 18.5c-110 0 -189.667 23 -239 69s-74 106.333 -74 181
c0 112 46.833 204.5 140.5 277.5s192.834 119.167 297.501 138.5v8c-44.667 0 -91 15.833 -139 47.5s-72 77.834 -72 138.501c0 79.333 40.667 147.333 122 204s155.333 91.334 222 104.001v2c-38 20.667 -63.167 39 -75.5 55s-18.5 42 -18.5 78
c0 25.333 8.66699 49.833 26 73.5s32.666 38.167 45.999 43.5h106c-13.333 -7.33301 -33 -22.5 -59 -45.5s-39 -47.5 -39 -73.5c0 -20.667 4.66699 -42.334 14 -65.001s28.333 -34 57 -34s71.167 22.667 127.5 68s112.166 68 167.499 68
c16.667 0 28.334 -4.16699 35.001 -12.5s10 -20.5 10 -36.5z" />
    <glyph glyph-name="Omicron" unicode="&#x3bf;" horiz-adv-x="979" 
d="M930 625c0 -171.333 -56.167 -321.333 -168.5 -450s-247.5 -193 -405.5 -193c-94 0 -169.667 28 -227 84s-86 137 -86 243c0 168 57.667 315.167 173 441.5s248 189.5 398 189.5c101.333 0 179.333 -32 234 -96s82 -137 82 -219zM772 618
c0 76 -16.001 139.833 -48.001 191.5s-78.667 77.5 -140 77.5c-101.333 0 -188.166 -52.667 -260.499 -158s-108.5 -247.333 -108.5 -426c0 -73.333 16 -136.333 48 -189s78 -79 138 -79c94 0 179.333 54.167 256 162.5s115 248.5 115 420.5z" />
    <glyph glyph-name="Pi" unicode="&#x3c0;" horiz-adv-x="1073" 
d="M1067 920l-30.999 -144.002h-215l-104 -428c-2 -9.33301 -3.83301 -19.166 -5.5 -29.499s-2.5 -20.166 -2.5 -29.499c0 -28.667 6.66699 -51.5 20 -68.5s27 -31.167 41 -42.5c8.66699 -7.33301 21 -19.833 37 -37.5s24 -46.5 24 -86.5
c0 -29.333 -9.16699 -50.833 -27.5 -64.5s-43.166 -20.5 -74.499 -20.5c-48 0 -84.833 16.833 -110.5 50.5s-38.5 77.167 -38.5 130.5c0 30 1.83301 57 5.5 81s9.16699 52.667 16.5 86l105 459h-220l-153 -454c-50.667 -151.333 -94.834 -248.333 -132.501 -291
s-77.5 -64 -119.5 -64c-20.667 0 -38.5 4.16699 -53.5 12.5s-22.5 27.166 -22.5 56.499c0 42.667 15.667 77.334 47 104.001l47 40c23.333 18 48.166 38.5 74.499 61.5s45.166 51.167 56.499 84.5l148 450h-119c-44 0 -85.167 -16.833 -123.5 -50.5
s-62.833 -60.5 -73.5 -80.5h-22c9.33301 38.667 45.333 94.167 108 166.5s132.334 108.5 209.001 108.5h709z" />
    <glyph glyph-name="Rho" unicode="&#x3c1;" horiz-adv-x="1040" 
d="M989 618c0 -160.667 -55.8301 -306.833 -167.497 -438.5s-245.5 -197.5 -401.5 -197.5c-54 0 -98.167 7 -132.5 21s-59.833 32 -76.5 54h-2l-131 -485h-207c39.333 82 71.666 163.333 96.999 244s42.666 142 51.999 184l86 381c39.333 173.333 108.333 309.833 207 409.5
s219 149.5 361 149.5c101.333 0 179.166 -31.333 233.499 -94s81.5 -138.667 81.5 -228zM834.003 614.001c0 88.667 -17.3311 156.668 -51.998 204.001s-81.667 71 -141 71c-114.667 0 -204.834 -65.333 -270.501 -196s-98.5 -263.334 -98.5 -398.001
c0 -64.667 15.5 -123.5 46.5 -176.5s79.833 -79.5 146.5 -79.5c113.333 0 203.166 62.667 269.499 188s99.5 254.333 99.5 387z" />
    <glyph glyph-name="FinalSigma" unicode="&#x3c2;" horiz-adv-x="969" 
d="M915 793c0 -36 -11.8311 -63.499 -35.498 -82.499s-49.167 -28.5 -76.5 -28.5c-24.667 0 -46.834 9.66699 -66.501 29s-37.167 38.333 -52.5 57c-22 26 -45.167 47.167 -69.5 63.5s-65.166 24.5 -122.499 24.5c-76.667 0 -143 -30.333 -199 -91s-84 -147 -84 -259
c0 -71.333 27.833 -128.166 83.5 -170.499s126.167 -82.5 211.5 -120.5c74 -32.667 141.667 -72 203 -118s92 -107.667 92 -185c0 -90 -33.667 -158.667 -101 -206s-160 -71 -278 -71c-26 0 -52 2.5 -78 7.5s-41.667 8.83301 -47 11.5l10 39
c9.33301 -2 23.666 -3.5 42.999 -4.5s40.666 -1.5 63.999 -1.5c56 0 106.167 11.833 150.5 35.5s66.5 61.5 66.5 113.5c0 52.667 -27.167 97.167 -81.5 133.5s-123.5 71.166 -207.5 104.499c-75.333 30.667 -142.666 67 -201.999 109s-89 99.667 -89 173
c0 86 8.5 159.167 25.5 219.5s52.833 121.166 107.5 182.499c47.333 53.333 111.166 96.333 191.499 129s177.833 49 292.5 49c72 0 131.5 -12.333 178.5 -37s70.5 -60 70.5 -106z" />
    <glyph glyph-name="Sigma" unicode="&#x3c3;" horiz-adv-x="1391" 
d="M1384 942l-41 -160.001h-446l19.5 -48c13 -32 19.5 -72.667 19.5 -122c0 -165.333 -57.333 -311.666 -172 -438.999s-245.667 -191 -393 -191c-105.333 0 -185 29 -239 87s-81 140.667 -81 248c0 174 58.667 321.667 176 443s254 182 410 182h747zM780 609.999
c0 92.667 -15.498 161.668 -46.498 207.001s-80.833 68 -149.5 68c-96.667 0 -181.334 -51.333 -254.001 -154s-109 -243.334 -109 -422.001c0 -69.333 15.167 -132.333 45.5 -189s74.5 -85 132.5 -85c105.333 0 195.166 56.667 269.499 170s111.5 248.333 111.5 405z" />
    <glyph glyph-name="Tau" unicode="&#x3c4;" horiz-adv-x="971" 
d="M965 920l-47.998 -154h-327l-133 -418c-5.33301 -16 -9.16602 -29.833 -11.499 -41.5s-3.5 -23.167 -3.5 -34.5c0 -24 5.16699 -42.833 15.5 -56.5s23.166 -28.167 38.499 -43.5c13.333 -13.333 25.166 -26.833 35.499 -40.5s15.5 -37.167 15.5 -70.5
c0 -38 -12 -62.833 -36 -74.5s-48.333 -17.5 -73 -17.5c-48.667 0 -85.334 17.167 -110.001 51.5s-37 73.833 -37 118.5c0 26 3.33301 53.667 10 83s15 61 25 95l137 449h-232c-36 0 -74.167 -13.333 -114.5 -40s-69.5 -53.667 -87.5 -81h-23
c45.333 81.333 97 147.5 155 198.5s119.667 76.5 185 76.5h619z" />
    <glyph glyph-name="Upsilon" unicode="&#x3c5;" horiz-adv-x="1075" 
d="M1034 852c0 -26.667 -5.83203 -73.1631 -17.499 -139.496s-25.5 -123.5 -41.5 -171.5c-56.667 -168.667 -134.667 -303.334 -234 -404.001s-220 -151 -362 -151c-80.667 0 -141.834 22.5 -183.501 67.5s-62.5 95.5 -62.5 151.5c0 64 7.16699 118.5 21.5 163.5
s31.833 90.833 52.5 137.5l51.5 118.5c15 35.667 22.5 76.834 22.5 123.501c0 31.333 -7.5 53 -22.5 65s-32.833 18 -53.5 18c-34 0 -63.667 -10.833 -89 -32.5s-41.333 -36.5 -48 -44.5l-15 12c36.667 58 75 101.167 115 129.5s81 42.5 123 42.5
c57.333 0 98 -14.333 122 -43s36 -67 36 -115c0 -58.667 -8.16699 -113.834 -24.5 -165.501s-33.5 -95.5 -51.5 -131.5c-18 -36.667 -35.5 -79.834 -52.5 -129.501s-25.5 -99.834 -25.5 -150.501c0 -41.333 14 -74.5 42 -99.5s66.667 -37.5 116 -37.5
c108.667 0 201 58.667 277 176s114 245.666 114 384.999c0 48.667 -3.33301 84.5 -10 107.5s-15 40.167 -25 51.5c16 20 52.333 52.333 109 97s88.667 67 96 67c9.33301 0 15 -8.16699 17 -24.5s3 -40.833 3 -73.5z" />
    <glyph glyph-name="CurlyPhi" unicode="&#x3c6;" horiz-adv-x="1165" 
d="M1114 637c0 -174 -56.6689 -324.672 -170.002 -452.005s-262 -191 -446 -191l-101 -410h-164c26 38.667 51.5 87.334 76.5 146.001s52.833 147.334 83.5 266.001c-92.667 0 -173.834 31.667 -243.501 95s-104.5 140.333 -104.5 231c0 91.333 14.333 172.833 43 244.5
s62 133.5 100 185.5c32.667 44.667 66.167 80.334 100.5 107.001s53.5 40 57.5 40s7.33301 -0.666992 10 -2s4 -2.66602 4 -3.99902c0 -6.66699 -8.83301 -19.667 -26.5 -39s-38.834 -49.333 -63.501 -90c-21.333 -34.667 -41.666 -85 -60.999 -151s-29 -138.667 -29 -218
c0 -73.333 19.833 -129.166 59.5 -167.499s105.834 -57.5 198.501 -57.5c80.667 308 148.834 511 204.501 609s135.834 147 240.501 147c70 0 126 -22.167 168 -66.5s63 -118.5 63 -222.5zM1055 583.995c0 69.333 -11.333 121.499 -34 156.499s-63.334 52.5 -122.001 52.5
c-66.667 0 -126 -34.167 -178 -102.5s-97.667 -186.5 -137 -354.5l-39 -166c166.667 0 293.334 42.833 380.001 128.5s130 180.834 130 285.501z" />
    <glyph glyph-name="Chi" unicode="&#x3c7;" horiz-adv-x="1137" 
d="M1130 920c-46 -69.333 -106.835 -148.499 -182.502 -237.499s-215.5 -229.833 -419.5 -422.5l62 -457c4.66699 -35.333 13.834 -66.333 27.501 -93s31.167 -40 52.5 -40c30.667 0 63.5 21.833 98.5 65.5s55.833 65.5 62.5 65.5c3.33301 0 6 -1 8 -3s3 -4.33301 3 -7
c0 -22.667 -28.667 -65.167 -86 -127.5s-114.666 -93.5 -171.999 -93.5c-31.333 0 -61 12 -89 36s-48.333 81.667 -61 173l-51 360c-150 -128 -268.667 -242 -356 -342s-146.333 -171 -177 -213l-96 -28c12.667 23.333 67 94.166 163 212.499s245.333 274.833 448 469.5
l-76 528c-4 30 -10.5 53.833 -19.5 71.5s-32.5 26.5 -70.5 26.5c-11.333 0 -22 -1 -32 -3s-28.667 -7 -56 -15l-9 24c50.667 16.667 100.667 34.167 150 52.5s82 27.5 98 27.5c26 0 46.833 -16.833 62.5 -50.5s29.167 -87.834 40.5 -162.501l57 -379
c128 118 246.667 236.333 356 355s167.333 183.334 174 194.001z" />
    <glyph glyph-name="Psi" unicode="&#x3c8;" horiz-adv-x="1264" 
d="M1257 928l-5.99805 -27.0039c-35.333 -1.33301 -70.666 -29.666 -105.999 -84.999s-58.666 -102.666 -69.999 -141.999l-74 -277c-40 -148.667 -113.5 -253.334 -220.5 -314.001s-210.167 -89.667 -309.5 -87l-133 -424h-49l96 422c-79.333 0 -153.833 28.5 -223.5 85.5
s-104.5 134.833 -104.5 233.5c0 56 16.5 134.5 49.5 235.5s49.5 176.167 49.5 225.5c0 58.667 -9 94.834 -27 108.501s-31 20.5 -39 20.5l6 25c71.333 0 124.333 -15.667 159 -47s52 -80 52 -146c0 -82 -15 -165.833 -45 -251.5s-45 -156.167 -45 -211.5
c0 -77.333 19.833 -129 59.5 -155s83.5 -39 131.5 -39l294 1237l170 28l-376 -1263c57.333 0 118.666 18.833 183.999 56.5s111.666 108.834 138.999 213.501c14 54.667 31.167 117.834 51.5 189.501s44.166 134.167 71.499 187.5c30 57.333 69.667 104.833 119 142.5
s114.666 57.167 195.999 58.5z" />
    <glyph glyph-name="Omega" unicode="&#x3c9;" horiz-adv-x="1415" 
d="M1366 528c0 -133.333 -52.5 -255.67 -157.5 -367.003s-221.833 -167 -350.5 -167c-65.333 0 -116.166 14.833 -152.499 44.5s-54.5 72.167 -54.5 127.5c0 12 0.666992 22.833 2 32.5l2 14.5h-2c-13.333 -49.333 -47.833 -98.166 -103.5 -146.499
s-129.5 -72.5 -221.5 -72.5c-80 0 -146.833 25.5 -200.5 76.5s-80.5 122.5 -80.5 214.5c0 134.667 49 266 147 394s182 208.333 252 241h68c-45.333 -38.667 -103.5 -120 -174.5 -244s-106.5 -256.333 -106.5 -397c0 -58 11.833 -105.667 35.5 -143s63.167 -56 118.5 -56
c79.333 0 138.833 30.333 178.5 91s67.5 125.334 83.5 194.001c15.333 66.667 27.333 130.667 36 192s20 92 34 92h98c4 0 7 -1 9 -3s3 -5 3 -9c0 -11.333 -18.333 -65.5 -55 -162.5s-55 -187.5 -55 -271.5c0 -37.333 12 -67.166 36 -89.499s55 -33.5 93 -33.5
c91.333 0 173.833 59.5 247.5 178.5s110.5 249.167 110.5 390.5c0 75.333 -8.83301 136.5 -26.5 183.5s-29.834 76.167 -36.501 87.5h67c30 -30 63.5 -80.333 100.5 -151s55.5 -151 55.5 -241z" />
    <glyph glyph-name="CurlyTheta" unicode="&#x3d1;" horiz-adv-x="1012" 
d="M1001 594c0 -8 -1.00098 -17.502 -3.00098 -28.502s-4.33301 -19.833 -7 -26.5l-129 71c-50.667 -207.333 -125.167 -365.666 -223.5 -474.999s-207.5 -164 -327.5 -164c-75.333 0 -136.166 41 -182.499 123s-69.5 183 -69.5 303c0 81.333 12 158.5 36 231.5
s44.333 120.167 61 141.5l211 47c-49.333 -72 -89.333 -154 -120 -246s-46 -188.667 -46 -290c0 -90 13.5 -156 40.5 -198s66.5 -63 118.5 -63c70.667 0 133.667 47.333 189 142s110 266.667 164 516c-63.333 28.667 -127 81 -191 157s-96 154.667 -96 236
c0 104 24.167 182.167 72.5 234.5s110.833 78.5 187.5 78.5c80.667 0 141.5 -35 182.5 -105s61.5 -158.333 61.5 -265c0 -61.333 -6.83301 -127.166 -20.5 -197.499l-20.5 -105.5c56 -27.333 88.667 -49.833 98 -67.5s14 -34.167 14 -49.5zM794.999 1153
c0 60 -10.333 106.333 -31 139s-48.667 49 -84 49c-56 0 -99.333 -19.667 -130 -59s-46 -105 -46 -197c0 -62 23.167 -122.167 69.5 -180.5s100.833 -103.833 163.5 -136.5c13.333 54 26.333 119 39 195s19 139.333 19 190z" />
    <glyph glyph-name="CurlyCapitalUpsilon" unicode="&#x3d2;" horiz-adv-x="1327" 
d="M1284 1204c0 -38 -10.833 -77.167 -32.5 -117.5s-55.167 -60.5 -100.5 -60.5c-27.333 0 -50.5 9.5 -69.5 28.5s-28.5 48.5 -28.5 88.5h4c24.667 0 44.834 7.83301 60.501 23.5s23.5 40.5 23.5 74.5c0 16.667 -9.33301 33.834 -28 51.501s-42.334 26.5 -71.001 26.5
c-84 0 -155.833 -60.333 -215.5 -181s-89.5 -287 -89.5 -499v-471c0 -42.667 9 -75.834 27 -99.501s65.667 -35.5 143 -35.5h35v-33h-614v33h16.5h10.5c62.667 0 108.334 11.667 137.001 35s43 56.666 43 99.999v156v227c0 296 -37.833 501.5 -113.5 616.5
s-204.5 177.833 -386.5 188.5v28c10.667 3.33301 27 6.66602 49 9.99902s41 5 57 5c84 0 153.167 -11.5 207.5 -34.5s105.166 -59.167 152.499 -108.5c36 -37.333 72.333 -91.666 109 -162.999s62 -136.666 76 -195.999c46 188.667 102 320.167 168 394.5
s146 111.5 240 111.5c50 0 94.167 -15 132.5 -45s57.5 -81.333 57.5 -154z" />
    <glyph glyph-name="Phi" unicode="&#x3d5;" horiz-adv-x="1126" 
d="M1075 623c0 -153.333 -58.332 -295.666 -174.999 -426.999s-258.334 -202 -425.001 -212l-121 -392h-51l90 390c-115.333 6.66699 -201.5 39 -258.5 97s-85.5 134.667 -85.5 230c0 157.333 55.333 296.666 166 417.999s246 191 406 209l92 379l170 28l-121 -405
c102 -14 179.667 -51 233 -111s80 -128 80 -204zM606.001 879c-104.667 -14 -195 -72.832 -271 -176.499s-114 -236.834 -114 -399.501c0 -46.667 13 -96.167 39 -148.5s75.333 -88.833 148 -109.5zM911.001 639.001c0 45.333 -15.168 91.167 -45.501 137.5
s-71.833 77.5 -124.5 93.5l-247 -829c110.667 9.33301 207.834 69 291.501 179s125.5 249.667 125.5 419z" />
    <glyph glyph-name="CurlyPi" unicode="&#x3d6;" horiz-adv-x="1683" 
d="M1677 920l-40.998 -155.999h-260l34 -91c22.667 -60.667 34 -126 34 -196c0 -122.667 -50.833 -233.834 -152.5 -333.501s-207.834 -149.5 -318.501 -149.5c-63.333 0 -111 15.5 -143 46.5s-48 74.833 -48 131.5c0 9.33301 0.666992 17.5 2 24.5l2 10.5h-2
c-22 -56 -61.333 -105.5 -118 -148.5s-120.334 -64.5 -191.001 -64.5c-100.667 0 -169.5 30.333 -206.5 91s-55.5 121 -55.5 181c0 96 27.667 189.5 83 280.5s120.666 163.5 195.999 217.5v2h-183c-52 0 -100.333 -22.833 -145 -68.5s-78.334 -97.167 -101.001 -154.5h-30
c18.667 72 66.334 152.833 143.001 242.5s159.334 134.5 248.001 134.5h1253zM1300 594.001c0 62.667 -4.33301 106.999 -13 132.999l-13 39h-690c-47.333 -54 -92.333 -125 -135 -213s-64 -187 -64 -297c0 -54 10.667 -97.833 32 -131.5s59 -50.5 113 -50.5
c68.667 0 121 26.167 157 78.5s62.333 112.833 79 181.5c16.667 65.333 29 125.333 37 180s18.333 82 31 82h98c4 0 6.66699 -1 8 -3s2 -4.33301 2 -7c0 -8.66699 -15.333 -52.167 -46 -130.5s-46 -159.166 -46 -242.499c0 -45.333 10.833 -78.833 32.5 -100.5
s56.5 -32.5 104.5 -32.5c82 0 154.667 62.167 218 186.5s95 233.5 95 327.5z" />
    <glyph glyph-name="CapitalStigma" unicode="&#x3da;" horiz-adv-x="1280" 
d="M1247 1380l-46.999 -186h-483c-180 0 -313 -78 -399 -234c-62 -112.667 -93 -247 -93 -403c0 -108 53 -193 159 -255l293 -140c106 -61.333 159 -144.666 159 -249.999c0 -110 -49.333 -188 -148 -234c-62 -28.667 -139 -43 -231 -43
c-46.667 0 -88.334 6.33301 -125.001 19l10 39l36.5 -3c24.333 -2 47.833 -3 70.5 -3c60.667 0 110.667 11.667 150 35c44.667 26.667 67 64.667 67 114c0 72 -52 130 -156 174c-164 69.333 -260.667 115.333 -290 138c-104.667 80 -157 199.333 -157 358
c0 114 30.333 235.667 91 365c68 145.333 159.333 262.666 274 351.999c135.333 104.667 289 157 461 157h358z" />
    <glyph glyph-name="Stigma" unicode="&#x3db;" horiz-adv-x="1071" 
d="M1065 924l-38.999 -162h-524c-76 0 -140.667 -14.667 -194 -44c-80 -43.333 -120 -114 -120 -212c0 -89.333 53 -163.333 159 -222l293 -140c106 -61.333 159 -138.666 159 -231.999c0 -110 -49.333 -188 -148 -234c-62 -28.667 -139 -43 -231 -43
c-46.667 0 -88.334 6.33301 -125.001 19l10 39l36.5 -3c24.333 -2 47.833 -3 70.5 -3c61.333 0 111.333 11.667 150 35c44.667 26.667 67 64.667 67 114c0 67.333 -50.333 125.666 -151 174.999l-279 124c-100 58 -150 131.667 -150 221c0 378.667 205.667 568 617 568h399z
" />
    <glyph glyph-name="CapitalDigamma" unicode="&#x3dc;" horiz-adv-x="1206" 
d="M1143 1069h-41c-28 140.667 -106 211 -234 211h-329c-63.333 0 -95 -27.333 -95 -82v-446h498v-287h-41c-28 140.667 -105.667 211 -233 211h-129c-62 0 -93 -27.333 -93 -82v-436c0 -82 61 -123 183 -123v-35h-561v35c118.667 0 178 41 178 123v1036
c0 84.667 -59.333 127 -178 127v35h1075v-287z" />
    <glyph glyph-name="Digamma" unicode="&#x3dd;" horiz-adv-x="938" 
d="M909 924l-18.001 -71.999c-26 4 -63 6 -111 6c-155.333 0 -275 -49.667 -359 -149c-34.667 -41.333 -61 -91.333 -79 -150l457 -18l-15 -90l-471 -13l-235 -852h-127l219 967c16.667 73.333 58 143.666 124 210.999c114.667 116 273.334 174 476.001 174
c16.667 0 63 -4.66699 139 -14z" />
    <glyph glyph-name="CapitalKoppa" unicode="&#x3de;" horiz-adv-x="1245" 
d="M1178 877c0 -125.333 -42.332 -234.669 -126.999 -328.002s-196 -150.666 -334 -171.999v-377h-205v377c-140.667 18.667 -254.334 76.667 -341.001 174c-84 93.333 -126 204 -126 332c0 148 51.667 269.333 155 364c106 97.333 245.333 146 418 146
c168.667 0 305.667 -51.667 411 -155c99.333 -97.333 149 -217.666 149 -360.999zM975.001 884.997c0 120.667 -21.667 220 -65 298c-60.667 108.667 -158 163 -292 163c-135.333 0 -235 -51.667 -299 -155c-47.333 -77.333 -71 -175.333 -71 -294
c0 -284 88 -442.333 264 -475v256h205v-244c172 52.667 258 203 258 451z" />
    <glyph glyph-name="Koppa" unicode="&#x3df;" horiz-adv-x="932" 
d="M893 641c0 -116.667 -44.333 -219.334 -133 -308.001c-84 -83.333 -185 -133.666 -303 -150.999l-60 -284h-153l61 282c-83.333 12.667 -150.333 45 -201 97c-52.667 54.667 -79 122.667 -79 204c0 134.667 54.333 247 163 337c102.667 84 222.334 126 359.001 126
c99.333 0 180.666 -25.333 243.999 -76c68 -55.333 102 -131 102 -227zM748 686c0 148.667 -69.666 223 -208.999 223c-119.333 0 -213 -53.333 -281 -160c-58.667 -91.333 -88 -200.333 -88 -327c0 -142 69 -213 207 -213c113.333 0 205.666 53 276.999 159
c62.667 93.333 94 199.333 94 318z" />
    <glyph glyph-name="CapitalSampi" unicode="&#x3e0;" horiz-adv-x="1354" 
d="M1313 674c0 -198 -61.6621 -363.332 -184.995 -495.999c-126.667 -136.667 -288.334 -205 -485.001 -205l-27 64c160 0 283 71 369 213c71.333 118.667 107 264 107 436c0 37.333 -2.33301 75.666 -7 114.999c-342.667 -416.667 -541.334 -683.667 -596.001 -801h-143
l727 881c0 13.333 -4 31 -12 53c-532 -506.667 -824.333 -818 -877 -934h-143l1001 1004c-74.667 214 -204.334 321 -389.001 321c-204 0 -341.667 -112.667 -413 -338l-84 195c123.333 136 289.666 204 498.999 204c197.333 0 357.666 -70 480.999 -210
c118 -134 177 -301.333 177 -502z" />
    <glyph glyph-name="Sampi" unicode="&#x3e1;" horiz-adv-x="827" 
d="M770 625c0 -160 -62 -302.667 -186 -428c-126 -127.333 -280.333 -198.333 -463 -213l-8 51c118 0 223.667 54.333 317 163c88 103.333 135 217 141 341l-471 -396l-4 97l484 376c0 28.667 -3.66699 56.667 -11 84l-481 -352l-6 80l473 320
c-32.667 92.667 -103.667 139 -213 139c-108 0 -203 -39 -285 -117l-10 92c106 52 216.667 78 332 78c125.333 0 224.333 -34 297 -102c62.667 -59.333 94 -130.333 94 -213z" />
    <glyph glyph-name="CurlyKappa" unicode="&#x3f0;" horiz-adv-x="952" 
d="M940 926l-10.0039 -84c-85.333 0 -149.666 -25.667 -192.999 -77s-91.666 -158.333 -144.999 -321l70 -311c6.66699 -30 25 -45 55 -45c42.667 0 76.667 23.333 102 70c22 39.333 38.333 59 49 59c4 0 6 -6 6 -18c0 -29.333 -28 -73 -84 -131
c-59.333 -60.667 -108.333 -91 -147 -91c-61.333 0 -105.666 56.667 -132.999 170l-57 236l-174 -256c-68 -100 -140 -150 -216 -150l-20 84c66.667 4.66699 130.667 37 192 97c44.667 44 88 103 130 177l69 130l-55 264c-8.66699 40.667 -17.667 66.667 -27 78
c-12 14.667 -33.667 22 -65 22c-27.333 0 -63.666 -7.33301 -108.999 -22l-8 27c166.667 52.667 250.667 79 252 79c46 0 78.667 -45 98 -135l51 -239c73.333 149.333 119.666 237.333 138.999 264c60.667 82 137.334 123 230.001 123z" />
    <glyph glyph-name="CurlyRho" unicode="&#x3f1;" horiz-adv-x="1022" 
d="M971 612c0 -152.667 -53.6689 -293.333 -161.002 -422c-115.333 -138.667 -253.666 -208 -414.999 -208c-172.667 0 -274.334 82.333 -305.001 247l-2 2c-23.333 -108 -35 -208.333 -35 -301v-47c0 -45.333 18.333 -76 55 -92c23.333 -9.33301 61 -14 113 -14
c15.333 0 43.333 0.666992 84 2s73.334 2 98.001 2c115.333 0 193 -13 233 -39c28 -18 42 -49.333 42 -94c0 -9.33301 -3.33301 -29.333 -10 -60h-33c0 30 -32 45 -96 45c-14 0 -46.667 -1.33301 -98 -4s-92.666 -4 -123.999 -4c-118 0 -201.333 13.667 -250 41
c-56.667 31.333 -85 88 -85 170c0 257.333 46.333 489 139 695c122 272.667 300.667 409 536 409c93.333 0 169 -30.333 227 -91s87 -139.667 87 -237zM812.998 616.001c0 180.667 -62.667 271 -188 271c-116.667 0 -210 -65.333 -280 -196
c-59.333 -111.333 -89 -236.666 -89 -375.999c0 -82 15 -148 45 -198c32.667 -54.667 78.334 -82 137.001 -82c109.333 0 200.666 62.333 273.999 187c67.333 115.333 101 246.666 101 393.999z" />
    <glyph glyph-name="Epsilon" unicode="&#x3f5;" horiz-adv-x="799" 
d="M793 924l-16.999 -72.0029c-14.667 2.66699 -31.334 4.33398 -50.001 5.00098s-38.667 1 -60 1c-103.333 0 -194.5 -26.333 -273.5 -79s-123.833 -126 -134.5 -220l463 -18l-12 -90l-465 -15c-2.66699 -10.667 -4.66699 -22.5 -6 -35.5s-2 -26.5 -2 -40.5
c0 -90 26.833 -160.167 80.5 -210.5s125.5 -75.5 215.5 -75.5c34.667 0 72.5 2.33301 113.5 7s78.5 10.334 112.5 17.001l-10 -75c-50.667 -12.667 -96.5 -20.667 -137.5 -24s-86.167 -5 -135.5 -5c-134 0 -238.167 34.167 -312.5 102.5s-111.5 169.833 -111.5 304.5
c0 180.667 55.333 315.334 166 404.001s256 133 436 133c26 0 49.667 -1.66699 71 -5s44.333 -6.33301 69 -9z" />
    <glyph glyph-name="OpenCurlyQuote" unicode="&#x2018;" horiz-adv-x="688" 
d="M483 1008c0 -38.667 -12.5029 -68.833 -37.5029 -90.5s-56.833 -32.5 -95.5 -32.5c-49.333 0 -89.333 17.333 -120 52s-46 77.334 -46 128.001c0 61.333 24.333 124.5 73 189.5s103 108.167 163 129.5l18 -41c-34 -14.667 -67 -41.834 -99 -81.501s-48 -76.5 -48 -110.5
c0 -26 8.66699 -39 26 -39c8.66699 0 19.834 2.66699 33.501 8s23.834 8 30.501 8c28.667 0 52.834 -12.5 72.501 -37.5s29.5 -52.5 29.5 -82.5z" />
    <glyph glyph-name="CloseCurlyQuote" unicode="&#x2019;" horiz-adv-x="688" 
d="M504 1204c0 -61.333 -24.332 -124.333 -72.999 -189s-103 -108 -163 -130l-18 41c34 14.667 67 41.834 99 81.501s48 76.5 48 110.5c0 26 -8.66699 39 -26 39c-7.33301 0 -17.833 -2.66699 -31.5 -8s-24.5 -8 -32.5 -8c-28.667 0 -52.834 12.667 -72.501 38
s-29.5 53 -29.5 83c0 38 12.667 67.833 38 89.5s57 32.5 95 32.5c50.667 0 91 -17.333 121 -52s45 -77.334 45 -128.001z" />
    <glyph glyph-name="OpenCurlyDoubleQuote" unicode="&#x201c;" horiz-adv-x="909" 
d="M827 1008c0 -38.667 -12.502 -68.833 -37.502 -90.5s-56.833 -32.5 -95.5 -32.5c-48.667 0 -88.5 17.333 -119.5 52s-46.5 77.334 -46.5 128.001c0 61.333 24.333 124.5 73 189.5s103 108.167 163 129.5l18 -41c-34 -14.667 -67 -41.834 -99 -81.501
s-48 -76.5 -48 -110.5c0 -26 9 -39 27 -39c8 0 18.833 2.66699 32.5 8s23.834 8 30.501 8c28.667 0 52.834 -12.5 72.501 -37.5s29.5 -52.5 29.5 -82.5zM349.998 1008c0 -38.667 -12.6699 -68.833 -38.0029 -90.5s-57 -32.5 -95 -32.5c-49.333 0 -89.333 17.333 -120 52
s-46 77.334 -46 128.001c0 61.333 24.333 124.5 73 189.5s103 108.167 163 129.5l18 -41c-34 -14.667 -67 -41.834 -99 -81.501s-48 -76.5 -48 -110.5c0 -26 8.66699 -39 26 -39c8.66699 0 19.834 2.66699 33.501 8s23.834 8 30.501 8c28.667 0 52.834 -12.5 72.501 -37.5
s29.5 -52.5 29.5 -82.5z" />
    <glyph glyph-name="CloseCurlyDoubleQuote" unicode="&#x201d;" horiz-adv-x="909" 
d="M858 1204c0 -61.333 -24.166 -124.333 -72.499 -189s-102.5 -108 -162.5 -130l-19 41c34 14.667 67.167 41.834 99.5 81.501s48.5 76.5 48.5 110.5c0 26 -9 39 -27 39c-6.66699 0 -16.834 -2.66699 -30.501 -8s-24.5 -8 -32.5 -8c-29.333 0 -53.833 12.667 -73.5 38
s-29.5 53 -29.5 83c0 38 12.667 67.833 38 89.5s57 32.5 95 32.5c50.667 0 91 -17.333 121 -52s45 -77.334 45 -128.001zM381.001 1204c0 -61.333 -24.1641 -124.333 -72.4971 -189s-102.833 -108 -163.5 -130l-18 41c34 14.667 67 41.834 99 81.501s48 76.5 48 110.5
c0 26 -8.66699 39 -26 39c-6.66699 0 -16.834 -2.66699 -30.501 -8s-24.834 -8 -33.501 -8c-28.667 0 -52.834 12.667 -72.501 38s-29.5 53 -29.5 83c0 38 12.667 67.833 38 89.5s57 32.5 95 32.5c50.667 0 91 -17.333 121 -52s45 -77.334 45 -128.001z" />
    <glyph glyph-name="Dagger" unicode="&#x2020;" horiz-adv-x="1094" 
d="M1047 907c0 -62.667 -30.333 -94.001 -91 -94.001c-11.333 0 -60.833 13 -148.5 39s-168.5 39 -242.5 39c0 -152.667 27.333 -283 82 -391c-57.333 -125.333 -86 -393.666 -86 -804.999h-41c0 418.667 -28.667 687 -86 805c60 106.667 90 237 90 391
c-73.333 0 -153.833 -10.333 -241.5 -31s-136.834 -31 -147.501 -31c-61.333 0 -92 28.667 -92 86c0 62 30.667 93 92 93c11.333 0 60.833 -12.667 148.5 -38s168.5 -38 242.5 -38c0 74 -10.5 154.667 -31.5 242s-31.5 136.333 -31.5 147c0 61.333 28.667 92 86 92
c61.333 0 92 -30.667 92 -92c0 -11.333 -12.333 -60.833 -37 -148.5s-37 -168.5 -37 -242.5c73.333 0 153.833 10.167 241.5 30.5s136.834 30.5 147.501 30.5c60.667 0 91 -28 91 -84z" />
    <glyph glyph-name="DoubleDagger" unicode="&#x2021;" horiz-adv-x="981" 
d="M907 174c0 -62.667 -30.002 -93.9971 -90.002 -93.9971c-11.333 0 -47.166 11.667 -107.499 35s-127.5 35 -201.5 35c0 -74.667 11.167 -148.834 33.5 -222.501s33.5 -115.834 33.5 -126.501c0 -61.333 -28.667 -92 -86 -92c-61.333 0 -92 30.667 -92 92
c0 11.333 11.667 54.166 35 128.499s35 148.5 35 222.5c-74 0 -141 -11.333 -201 -34s-95.333 -34 -106 -34c-61.333 0 -92 28.667 -92 86c0 61.333 30.667 92 92 92c11.333 0 46.833 -12 106.5 -36s126.5 -36 200.5 -36c0 152.667 -28.667 269.667 -86 351
c57.333 79.333 86 196 86 350c-73.333 0 -140.166 -11.333 -200.499 -34s-95.833 -34 -106.5 -34c-61.333 0 -92 28.667 -92 86c0 61.333 30.667 92 92 92c11.333 0 47.166 -11.5 107.499 -34.5s127.5 -34.5 201.5 -34.5c0 74 -11.667 147.833 -35 221.5
s-35 115.834 -35 126.501c0 61.333 28.667 92 86 92c63.333 0 95 -30.667 95 -92c0 -11.333 -11.667 -54 -35 -128s-35 -148 -35 -222c73.333 0 140.166 11.167 200.499 33.5s95.833 33.5 106.5 33.5c60 0 90 -28 90 -84c0 -62.667 -30 -94 -90 -94
c-11.333 0 -47.166 12 -107.499 36s-127.5 36 -201.5 36c0 -152.667 28.667 -269.334 86 -350.001c-57.333 -80 -86 -197 -86 -351c74 0 141.333 11.333 202 34s96.334 34 107.001 34c60 0 90 -28 90 -84z" />
    <glyph glyph-name="Bullet" unicode="&#x2022;" horiz-adv-x="643" 
d="M578 614c0 -71.333 -25 -131.833 -75 -181.5s-110.333 -74.5 -181 -74.5c-72 0 -132.667 24.833 -182 74.5s-74 110.167 -74 181.5s24.667 131.833 74 181.5s110 74.5 182 74.5c70.667 0 131 -25 181 -75s75 -110.333 75 -181z" />
    <glyph glyph-name="Ellipsis" unicode="&#x2026;" horiz-adv-x="2048" 
d="M1825 90c0 -32.667 -12 -60.6689 -36 -84.002s-52.333 -35 -85 -35c-31.333 0 -58.333 12 -81 36s-34 51.667 -34 83c0 30.667 11.5 57.834 34.5 81.501s49.833 35.5 80.5 35.5c32 0 60.167 -11.667 84.5 -35s36.5 -50.666 36.5 -81.999zM1141 89.998
c0 -32.667 -11.668 -60.6689 -35.001 -84.002s-51.333 -35 -84 -35c-31.333 0 -58.666 12 -81.999 36s-35 51.667 -35 83c0 30.667 11.5 57.834 34.5 81.501s49.833 35.5 80.5 35.5c32 0 60.167 -11.667 84.5 -35s36.5 -50.666 36.5 -81.999zM456.999 89.9961
c0 -32.667 -12 -60.6689 -36 -84.002s-52.333 -35 -85 -35c-31.333 0 -58.333 12 -81 36s-34 51.667 -34 83c0 30.667 11.5 57.834 34.5 81.501s49.833 35.5 80.5 35.5c32 0 60.167 -11.667 84.5 -35s36.5 -50.666 36.5 -81.999z" />
    <glyph glyph-name="Prime" unicode="&#x2032;" horiz-adv-x="711" 
d="M608 842c0 -23.333 -5.5 -48.5 -16.5 -75.5s-24.5 -53.167 -40.5 -78.5l-336 -530c-13.333 -20 -26.666 -36 -39.999 -48s-26.666 -18 -39.999 -18c-10.667 0 -18.834 4.83301 -24.501 14.5s-8.5 19.167 -8.5 28.5c0 10 2.66699 22.333 8 37l13 35l213 620
c10.667 30.667 26.667 61 48 91s49.666 45 84.999 45c32.667 0 64 -11.333 94 -34s45 -51.667 45 -87z" />
    </font>
</defs>
</svg>
